<svg width="88" height="42" viewBox="0 0 88 42" fill="none" xmlns="http://www.w3.org/2000/svg">
<path fill-rule="evenodd" clip-rule="evenodd" d="M22.8577 13.837L17.0929 17.9202L11.4298 13.9042L5.75906 17.9259L0 13.8428L11.4298 5.73401L22.8577 13.837Z" fill="#535D79"/>
<path fill-rule="evenodd" clip-rule="evenodd" d="M5.88768 25.7669V17.8712L0 13.8629V29.7771L11.6832 37.7323V29.7138L5.88768 25.7669ZM11.6832 30.115H17.2695V21.9909H11.6832V30.115Z" fill="#535D79"/>
<path fill-rule="evenodd" clip-rule="evenodd" d="M11.6836 37.7332L23.3649 29.8606V21.9879L11.6836 29.801V37.7332Z" fill="#535D79"/>
<path fill-rule="evenodd" clip-rule="evenodd" d="M17.4963 26.0514L11.6797 21.976L17.4675 17.9254L23.3629 21.9817L17.4963 26.0514Z" fill="#535D79"/>
<path fill-rule="evenodd" clip-rule="evenodd" d="M35.1002 24.3281C36.3134 24.3281 37.3193 23.2915 37.3193 21.9919C37.3193 20.6903 36.3134 19.6537 35.1002 19.6537C33.9061 19.6537 32.8983 20.6903 32.8983 21.99C32.8983 23.2915 33.9061 24.3281 35.1002 24.3281ZM33.1555 26.1883C33.5126 26.8794 34.2306 27.3555 35.0503 27.3555C36.2443 27.3555 37.2003 26.3515 37.2003 25.1191V25.0365L37.1658 25.0212C36.5016 25.6623 35.6473 26.0578 34.6894 26.0578C32.643 26.0578 30.9844 24.2302 30.9844 21.9919C30.9844 19.7382 32.643 17.9279 34.6894 17.9279C35.6473 17.9279 36.4996 18.3234 37.1658 18.9799L37.2003 18.9626V18.141H39.1123V25.1191C39.1123 27.3248 37.423 29.1005 35.1347 29.1005C33.599 29.1005 32.2667 28.3115 31.5507 27.1098L33.1555 26.1883ZM45.7026 20.9207L45.7218 20.8881C45.2976 20.1317 44.5546 19.6211 43.6927 19.6211C42.7981 19.6211 42.1051 20.0991 41.6482 20.8881L41.6674 20.9207H45.7026ZM45.4838 23.5699L46.8007 24.8369C46.0405 25.5932 44.977 26.0539 43.8098 26.0539C41.4793 26.0539 39.621 24.2437 39.621 21.99C39.6193 21.4551 39.7234 20.9252 39.9275 20.4309C40.1316 19.9365 40.4316 19.4874 40.8101 19.1096C41.1886 18.7318 41.6383 18.4327 42.133 18.2295C42.6278 18.0264 43.1579 17.9232 43.6927 17.926C44.2263 17.9252 44.7548 18.03 45.2478 18.2342C45.7408 18.4384 46.1886 18.738 46.5654 19.1159C46.9421 19.4937 47.2405 19.9423 47.4433 20.4359C47.6461 20.9295 47.7494 21.4583 47.7471 21.9919C47.7471 22.3547 47.7125 22.4526 47.7125 22.4526H41.5119C41.5119 23.3069 42.5428 24.3109 43.7253 24.3109C44.4183 24.3109 45.0269 24.0152 45.4838 23.5718V23.5699ZM50.6132 22.0994V26.0539H48.7626V18.1448H50.6132V19.1085L50.6477 19.1277C51.2755 18.333 52.1182 17.926 52.9936 17.926C56.2993 17.926 56.3818 21.0013 56.3818 21.9477V26.0539H54.5313V22.0994C54.5313 21.153 54.5121 19.6998 52.5981 19.6998C51.5077 19.6998 50.6132 20.7652 50.6132 22.0994ZM61.4191 19.6883C60.1905 19.6883 59.2038 20.7441 59.2038 22.0533C59.2038 23.3779 60.1924 24.4356 61.4191 24.4356C62.6093 24.4356 63.6171 23.3798 63.6171 22.0552C63.6171 20.746 62.6112 19.6883 61.4191 19.6883ZM61.828 26.2152C60.8566 26.2152 60.0235 25.8293 59.3401 25.1402L59.3055 25.1594V29.1005H57.3973V18.1448H59.3055V18.9665L59.3401 18.9857C60.0216 18.331 60.8566 17.9279 61.828 17.9279C63.8725 17.9279 65.5253 19.7727 65.5253 22.0725C65.5253 24.3704 63.8725 26.2152 61.828 26.2152ZM70.146 24.3089C71.3592 24.3089 72.3498 23.2896 72.3498 21.99C72.3498 20.6903 71.3592 19.6537 70.1479 19.6537C68.9519 19.6537 67.9441 20.6903 67.9441 21.99C67.9441 23.2896 68.95 24.3089 70.146 24.3089ZM69.7371 17.926C70.6931 17.926 71.5474 18.3214 72.2135 18.9799L72.248 18.9607V18.1391H74.1581V25.8389H72.2461V25.0499L72.2135 25.0173C71.5474 25.6585 70.6931 26.0539 69.7371 26.0539C67.6888 26.0539 66.0321 24.2437 66.0321 21.99C66.0321 19.7363 67.6888 17.926 69.7371 17.926ZM82.2861 24.8369C81.8971 25.2251 81.435 25.5325 80.9267 25.7414C80.4183 25.9503 79.8736 26.0565 79.324 26.0539C77.0165 26.0539 75.1756 24.2437 75.1756 21.99C75.1756 19.7363 77.0165 17.926 79.324 17.926C80.4777 17.926 81.5316 18.3867 82.2861 19.145L80.9634 20.3602C80.754 20.1352 80.5002 19.9563 80.218 19.8346C79.9357 19.713 79.6313 19.6514 79.324 19.6537C78.0532 19.6537 77.0492 20.7057 77.0492 21.99C77.0492 23.2723 78.0532 24.3089 79.324 24.3089C79.6376 24.3085 79.9478 24.2441 80.2356 24.1196C80.5234 23.9952 80.7828 23.8134 80.998 23.5852L82.2861 24.8369ZM86.0372 19.6115V25.5452H84.1213V19.6134H82.7929V17.8319H84.1213V14.3707H86.0372V17.8319H87.3656V19.6115H86.0372Z" fill="#535D79"/>
</svg>
