<svg width="96" height="42" viewBox="0 0 96 42" fill="none" xmlns="http://www.w3.org/2000/svg">
<path d="M40.982 22.8932C40.982 27.4401 37.4441 30.7907 33.1023 30.7907C28.7605 30.7907 25.2227 27.4401 25.2227 22.8932C25.2227 18.3142 28.7605 14.9957 33.1023 14.9957C37.4441 14.9957 40.982 18.3142 40.982 22.8932ZM37.5326 22.8932C37.5326 20.0518 35.4822 18.1077 33.1023 18.1077C30.7225 18.1077 28.672 20.0518 28.672 22.8932C28.672 25.7061 30.7225 27.6787 33.1023 27.6787C35.4822 27.6787 37.5326 25.7026 37.5326 22.8932Z" fill="#535D79"/>
<path d="M57.9781 22.8932C57.9781 27.4401 54.4402 30.7907 50.0984 30.7907C45.7566 30.7907 42.2188 27.4401 42.2188 22.8932C42.2188 18.3178 45.7566 14.9957 50.0984 14.9957C54.4402 14.9957 57.9781 18.3142 57.9781 22.8932ZM54.5287 22.8932C54.5287 20.0518 52.4783 18.1077 50.0984 18.1077C47.7186 18.1077 45.6681 20.0518 45.6681 22.8932C45.6681 25.7061 47.7186 27.6787 50.0984 27.6787C52.4783 27.6787 54.5287 25.7026 54.5287 22.8932Z" fill="#535D79"/>
<path d="M74.2691 15.4729V29.6513C74.2691 35.4836 70.848 37.8657 66.8037 37.8657C62.9967 37.8657 60.7054 35.3056 59.8413 33.2119L62.8444 31.955C63.3792 33.2404 64.6895 34.7573 66.8002 34.7573C69.389 34.7573 70.9932 33.1514 70.9932 30.1284V28.9926H70.8728C70.1008 29.9504 68.6134 30.7871 66.7365 30.7871C62.809 30.7871 59.2109 27.3476 59.2109 22.9217C59.2109 18.4638 62.809 14.9957 66.7365 14.9957C68.6099 14.9957 70.0973 15.8325 70.8728 16.7618H70.9932V15.4764H74.2691V15.4729ZM71.2376 22.9217C71.2376 20.1408 69.3925 18.1077 67.0446 18.1077C64.6647 18.1077 62.6709 20.1408 62.6709 22.9217C62.6709 25.6741 64.6647 27.6787 67.0446 27.6787C69.3925 27.6787 71.2376 25.6741 71.2376 22.9217Z" fill="#535D79"/>
<path d="M79.669 7.1637V30.3078H76.3047V7.1637H79.669Z" fill="#535D79"/>
<path d="M92.7791 25.4921L95.4564 27.2867C94.5923 28.5721 92.5099 30.7868 88.9119 30.7868C84.4497 30.7868 81.1172 27.3187 81.1172 22.8893C81.1172 18.1928 84.478 14.9918 88.5258 14.9918C92.602 14.9918 94.5958 18.2534 95.2474 20.0159L95.6051 20.9132L85.1048 25.2856C85.9087 26.8701 87.1589 27.6784 88.9119 27.6784C90.6684 27.6784 91.8866 26.8096 92.7791 25.4921ZM84.5382 22.6507L91.5573 19.7203C91.1713 18.734 90.0097 18.0468 88.6427 18.0468C86.8897 18.0468 84.4497 19.6028 84.5382 22.6507Z" fill="#535D79"/>
<path d="M12.4874 20.8386V17.488H23.7172C23.827 18.072 23.8837 18.7627 23.8837 19.5105C23.8837 22.0243 23.2002 25.1327 20.9974 27.3474C18.8548 29.5906 16.1173 30.787 12.4909 30.787C5.7693 30.787 0.117188 25.2823 0.117188 18.5242C0.117188 11.7661 5.7693 6.26135 12.4909 6.26135C16.2094 6.26135 18.8584 7.72833 20.8487 9.64039L18.4972 12.0047C17.07 10.6587 15.1364 9.61191 12.4874 9.61191C7.57896 9.61191 3.74006 13.5891 3.74006 18.5242C3.74006 23.4592 7.57896 27.4364 12.4874 27.4364C15.6711 27.4364 17.4843 26.1511 18.6459 24.9832C19.5879 24.036 20.2077 22.683 20.452 20.835L12.4874 20.8386Z" fill="#535D79"/>
</svg>
