<svg width="95" height="42" viewBox="0 0 95 42" fill="none" xmlns="http://www.w3.org/2000/svg">
<g clip-path="url(#clip0_817_1301)">
<path d="M13.0925 33.4989C11.6784 33.7494 10.2394 33.8245 8.7508 34.0245L4.21046 20.6115V34.6002C2.79635 34.7503 1.50626 34.9504 0.166504 35.1506V9.52563H3.93772L9.09808 24.065V9.52563H13.0925V33.4989ZM20.9076 18.9098C22.446 18.9098 24.8029 18.8347 26.217 18.8347V22.8385C24.4554 22.8385 22.3963 22.8385 20.9076 22.9136V28.8695C23.2399 28.7194 25.572 28.5191 27.9288 28.444V32.2975L16.938 33.1735V9.52563H27.9288V13.5295H20.9076V18.9098ZM42.6907 13.5296H38.5723V31.9476C37.2326 31.9476 35.8928 31.9476 34.6029 31.9975V13.5296H30.4845V9.52563H42.6909L42.6907 13.5296ZM49.1413 18.6346H54.5748V22.6384H49.1413V31.7224H45.2459V9.52563H56.3363V13.5295H49.1413V18.6346ZM62.7868 28.2189C65.0446 28.2688 67.3269 28.4442 69.5351 28.5691V32.5231C65.9874 32.2977 62.4395 32.0728 58.8173 31.9975V9.52563H62.7868V28.2189ZM72.8844 32.7983C74.1497 32.8735 75.4895 32.9486 76.7796 33.0985V9.52563H72.8844V32.7983ZM94.1715 9.52563L89.135 21.7126L94.1715 35.1506C92.6828 34.9504 91.1942 34.6752 89.7056 34.4249L86.8525 27.0178L83.95 33.8245C82.5108 33.574 81.1214 33.4989 79.6827 33.2987L84.7935 21.5623L80.1787 9.52563H84.4459L87.0509 16.2572L89.8298 9.52563H94.1715V9.52563Z" fill="#535D79"/>
</g>
<defs>
<clipPath id="clip0_817_1301">
<rect width="94" height="41" fill="white" transform="translate(0.166504 0.984009)"/>
</clipPath>
</defs>
</svg>
