<?xml version="1.0" encoding="UTF-8"?>
<svg version="1.1" xmlns="http://www.w3.org/2000/svg" width="1440" height="309">
<path d="M0 0 C475.2 0 950.4 0 1440 0 C1440 101.97 1440 203.94 1440 309 C964.8 309 489.6 309 0 309 C0 207.03 0 105.06 0 0 Z " fill="#FEFEFE" transform="translate(0,0)"/>
<path d="M0 0 C10.60639926 -0.08738976 21.11980528 0.22806016 31.70605469 0.85107422 C33.33571735 0.94378643 34.9654013 1.03612523 36.59510422 1.1281271 C41.02271025 1.37916464 45.44999574 1.63549252 49.87724113 1.89280152 C54.64914706 2.1692258 59.42133203 2.44075405 64.19348145 2.7129364 C73.48481154 3.24366622 82.77586876 3.77903482 92.06684017 4.31600314 C99.60642748 4.75161802 107.14612981 5.18519181 114.68591309 5.61740112 C115.76000325 5.67897363 116.83409341 5.74054613 117.94073176 5.80398446 C120.11983514 5.92889751 122.2989386 6.05380923 124.47804213 6.17871964 C190.35693284 9.95608876 256.23233054 13.79471622 322.10544205 17.67152107 C327.23784702 17.97349857 332.37027504 18.27508419 337.50270176 18.57669169 C342.16688477 18.85085773 346.83101907 19.12583229 351.49511242 19.40151912 C355.05171305 19.61156839 358.6083712 19.82063376 362.16503906 20.02954102 C362.84608326 20.06964542 363.52712746 20.10974983 364.22880936 20.15106952 C372.50732719 20.63764795 380.78679594 21.09905718 389.0682373 21.53317261 C389.91120888 21.57761857 390.75418046 21.62206454 391.62269664 21.66785735 C395.70965055 21.88319873 399.79671122 22.09568047 403.88409805 22.30264378 C405.36558868 22.3799894 406.8470737 22.45744236 408.32855225 22.53501892 C409.61886227 22.60086654 410.90917229 22.66671415 412.23858261 22.73455715 C416.19163985 23.013524 420.07302525 23.47469218 424 24 C424 24.33 424 24.66 424 25 C414.43 25.33 404.86 25.66 395 26 C398.6923584 26.08564209 402.3847168 26.17128418 406.18896484 26.25952148 C418.44647561 26.54425157 430.70391028 26.8321501 442.96130943 27.12164211 C450.38628017 27.29692697 457.81127264 27.47116158 465.23632812 27.64282227 C471.71670017 27.79264549 478.19701993 27.94454259 484.6772877 28.09881264 C488.1006159 28.18023946 491.5239599 28.26070768 494.94736862 28.33868217 C509.31856537 28.66797454 523.65265185 29.09518152 538 30 C538 40.89 538 51.78 538 63 C536.35 63.66 534.7 64.32 533 65 C532.94593878 66.93719378 532.90717975 68.87481921 532.875 70.8125 C532.84019531 72.43091797 532.84019531 72.43091797 532.8046875 74.08203125 C532.76976283 77.19402868 532.76976283 77.19402868 535 80 C535.99 80.33 536.98 80.66 538 81 C537.67 78.36 537.34 75.72 537 73 C535.515 73.495 535.515 73.495 534 74 C534 73.34 534 72.68 534 72 C536.4375 72.375 536.4375 72.375 539 73 C540.36952673 75.73905345 540.12621361 77.97087332 540 81 C539.67 81.66 539.34 82.32 539 83 C544.09408449 82.24154911 549.18383682 81.45984152 554.27099609 80.65625 C556.00242434 80.38613031 557.73486516 80.12242068 559.46826172 79.86523438 C561.95834014 79.49464457 564.44387903 79.10122913 566.9296875 78.703125 C567.70682098 78.59252747 568.48395447 78.48192993 569.28463745 78.36798096 C571.71710832 78.00546395 571.71710832 78.00546395 575 77 C576.58475421 75.0454411 576.58475421 75.0454411 577 73 C577.99 73.33 578.98 73.66 580 74 C596.64190264 75.28645681 596.64190264 75.28645681 611.921875 70.71875 C612.42203125 70.2546875 612.9221875 69.790625 613.4375 69.3125 C614.283125 68.549375 615.12875 67.78625 616 67 C618.00544907 67.29880617 620.00496547 67.63813216 622 68 C624.32076057 67.81271055 626.63526659 67.53495976 628.9375 67.1875 C630.25635208 66.98853097 631.57536826 66.79064717 632.89453125 66.59375 C633.90507568 66.44099609 633.90507568 66.44099609 634.93603516 66.28515625 C637.00077262 65.99989326 639.06144736 65.78647835 641.13671875 65.59375 C641.80517822 65.52518799 642.4736377 65.45662598 643.16235352 65.38598633 C645.02636301 65.19747535 646.8920716 65.02599346 648.7578125 64.85546875 C652.76091363 63.79922881 654.37421691 62.14035963 657 59 C658.60729993 55.78540014 658.61930855 52.47611897 658 49 C655.70800597 46.03949126 655.70800597 46.03949126 653 44 C652 43 652 43 651.90234375 40.27734375 C651.91974609 38.62412109 651.91974609 38.62412109 651.9375 36.9375 C651.94652344 35.83277344 651.95554687 34.72804687 651.96484375 33.58984375 C651.98224609 32.30787109 651.98224609 32.30787109 652 31 C652.92373539 30.97368657 653.84747078 30.94737314 654.79919815 30.92026234 C801.29657745 26.74700823 801.29657745 26.74700823 947.79220104 22.51268291 C951.23745532 22.41239471 954.68271101 22.31215533 958.12796676 22.21191776 C993.44517227 21.18437912 1028.76228992 20.15386352 1064.07928276 19.11904049 C1080.2519894 18.64518728 1096.4247238 18.1722878 1112.59747505 17.69995975 C1123.2038103 17.39014464 1133.81011671 17.07937444 1144.4163866 16.76733005 C1151.58509281 16.55649059 1158.75382889 16.34668833 1165.9225893 16.1377002 C1170.05573303 16.01717117 1174.1888611 15.89615755 1178.32195282 15.77385712 C1182.11752396 15.66155109 1185.91313229 15.55060109 1189.70877385 15.4407016 C1191.72336036 15.38202175 1193.73790483 15.32190402 1195.75244713 15.26172543 C1196.96441576 15.22689336 1198.17638439 15.19206129 1199.42507935 15.15617371 C1200.46085176 15.12579608 1201.49662418 15.09541845 1202.56378365 15.06412029 C1207.04179387 14.98055998 1211.52121022 15 1216 15 C1216 68.46 1216 121.92 1216 177 C804.82 177 393.64 177 -30 177 C-30 123.54 -30 70.08 -30 15 C28.5 16.5 28.5 16.5 46.82226562 16.97460938 C52.34636435 17.11472119 52.34636435 17.11472119 57.8704834 17.25402832 C60.28945732 17.31541088 62.70840169 17.37796656 65.12731934 17.44152832 C68.83806688 17.53878946 72.54889785 17.63206276 76.25976562 17.72460938 C77.29761452 17.75271446 78.33546341 17.78081955 79.40476227 17.80977631 C90.94316061 18.08907226 102.44576722 18 114 18 C76.38 17.01 38.76 16.02 0 15 C0 10.05 0 5.1 0 0 Z " fill="#FEFEFE" transform="translate(128,132)"/>
<path d="M0 0 C0.93714844 -0.01160156 1.87429688 -0.02320313 2.83984375 -0.03515625 C11.07164373 -0.00061723 17.68899606 1.55287864 23.875 7.375 C26.57887083 11.43080625 26.51761481 14.61305952 25.875 19.375 C24.375 22.3125 24.375 22.3125 21.875 25.375 C20.51723679 27.03873802 19.16338598 28.70567313 17.8125 30.375 C17.14089844 31.179375 16.46929688 31.98375 15.77734375 32.8125 C11.40912538 38.69658881 10.46744527 42.94334932 10.75 50.0625 C10.98094214 58.05717357 10.98094214 58.05717357 9.875 61.375 C8.99809095 69.62131777 10.47608528 77.82338429 15.75 84.375 C18.18798956 86.9653639 20.37530554 88.44861029 23.875 89.375 C23.875 89.705 23.875 90.035 23.875 90.375 C21.895 90.375 19.915 90.375 17.875 90.375 C18.12894531 91.344375 18.38289062 92.31375 18.64453125 93.3125 C21.12887023 102.93991889 23.15620074 112.58305269 24.875 122.375 C27.25162822 122.2873127 29.62483127 122.18036886 32 122.0625 C32.66515625 122.03994141 33.3303125 122.01738281 34.015625 121.99414062 C38.63786084 121.74490242 41.91536672 120.75552916 45.875 118.375 C46.390625 117.7975 46.90625 117.22 47.4375 116.625 C48.875 115.375 48.875 115.375 51.3125 115.375 C54.82024678 116.74387679 55.99915562 118.10964126 57.875 121.375 C58.50370677 126.32606583 58.42898784 128.34343643 56.0625 132.75 C52.47000978 137.06098827 49.77812517 137.71722824 44.375 138.375 C43.73079102 138.45403564 43.08658203 138.53307129 42.42285156 138.61450195 C40.2412547 138.87752221 38.05827478 139.12631338 35.875 139.375 C35.04548828 139.47345215 34.21597656 139.5719043 33.36132812 139.67333984 C30.78346118 139.97835834 28.20458204 140.27237103 25.625 140.5625 C24.39233398 140.70655273 24.39233398 140.70655273 23.13476562 140.85351562 C19.68382038 141.22542201 17.20748001 141.48582667 13.875 140.375 C13.318125 141.15875 12.76125 141.9425 12.1875 142.75 C6.07914615 148.75626437 -5.20977454 147.54521543 -13.25 147.625 C-13.98444336 147.63442627 -14.71888672 147.64385254 -15.47558594 147.65356445 C-19.2315602 147.63036321 -20.92367448 147.50921701 -24.125 145.375 C-24.33044434 146.16737061 -24.53588867 146.95974121 -24.74755859 147.77612305 C-26.125 150.375 -26.125 150.375 -28.79541016 151.40161133 C-29.90706543 151.5848999 -31.0187207 151.76818848 -32.1640625 151.95703125 C-33.38480469 152.16650391 -34.60554687 152.37597656 -35.86328125 152.59179688 C-37.14589844 152.78837891 -38.42851563 152.98496094 -39.75 153.1875 C-41.00941406 153.40341797 -42.26882813 153.61933594 -43.56640625 153.84179688 C-49.81776572 154.8749439 -55.78943812 155.6542754 -62.125 155.375 C-62.09244792 153.35677083 -62.05989583 151.33854167 -62.02734375 149.3203125 C-61.99850758 147.29314596 -61.99850758 147.29314596 -63.125 145.375 C-63.455 145.375 -63.785 145.375 -64.125 145.375 C-63.795 146.035 -63.465 146.695 -63.125 147.375 C-63.085008 149.37460012 -63.08153201 151.37547242 -63.125 153.375 C-65 153.0625 -65 153.0625 -67.125 152.375 C-69.44090289 148.90114567 -69.39491835 147.41069994 -69.375 143.3125 C-69.38015625 142.24902344 -69.3853125 141.18554688 -69.390625 140.08984375 C-69.125 137.375 -69.125 137.375 -67.125 135.375 C-65.805 135.375 -64.485 135.375 -63.125 135.375 C-63.125 124.485 -63.125 113.595 -63.125 102.375 C-65.51145752 102.38781006 -67.89791504 102.40062012 -70.35668945 102.41381836 C-83.38092435 102.43598062 -96.39855721 102.07109715 -109.41796875 101.75390625 C-111.44940585 101.70525579 -113.4808497 101.65689546 -115.51229459 101.60857147 C-121.88332451 101.45701552 -128.25430085 101.30334527 -134.62524414 101.14819336 C-141.12571855 100.98991496 -147.62626261 100.83479476 -154.12685221 100.68132645 C-159.77257915 100.54794979 -165.41826101 100.41277129 -171.06391126 100.27618736 C-174.40721806 100.19530636 -177.75053735 100.11516704 -181.09389305 100.03631783 C-197.11402427 99.65713344 -213.11875697 99.14859431 -229.125 98.375 C-229.125 98.045 -229.125 97.715 -229.125 97.375 C-214.605 97.045 -200.085 96.715 -185.125 96.375 C-190.33667969 96.07432617 -195.54835938 95.77365234 -200.91796875 95.46386719 C-202.75072357 95.35813133 -204.58347839 95.25239548 -206.47177124 95.14345551 C-207.300702 95.09563258 -208.12963276 95.04780965 -208.98368263 94.99853754 C-210.77575493 94.89514875 -212.56782722 94.79175997 -214.35989952 94.68837118 C-215.33447924 94.63214543 -216.30905895 94.57591968 -217.31317139 94.51799011 C-221.33811442 94.28578186 -225.36305745 94.05357361 -229.38800049 93.82136536 C-230.40782139 93.76252954 -231.42764229 93.70369371 -232.47836685 93.64307499 C-238.86497688 93.27461672 -238.86497688 93.27461672 -245.25158691 92.90615845 C-246.34032104 92.84334686 -247.42905518 92.78053528 -248.55078125 92.71582031 C-255.35864258 92.32305908 -255.35864258 92.32305908 -262.16650391 91.93029785 C-263.88544798 91.831128 -263.88544798 91.831128 -265.63911819 91.72995472 C-269.13441213 91.52830315 -272.62970606 91.32665157 -276.125 91.125 C-277.84544147 91.02574376 -277.84544147 91.02574376 -279.60063934 90.92448235 C-281.91651313 90.79087424 -284.23238691 90.65726614 -286.54826069 90.52365804 C-287.69813056 90.45731939 -288.84800043 90.39098074 -290.03271484 90.32263184 C-298.29854933 89.84575677 -306.56438382 89.3688817 -314.83021832 88.89200664 C-316.01989617 88.82337137 -317.20957403 88.75473611 -318.43530273 88.684021 C-322.06812922 88.47443485 -325.70095571 88.26484871 -329.3337822 88.05526257 C-330.54363407 87.98546342 -331.75348595 87.91566427 -333 87.84375 C-339.19499429 87.48634648 -345.38998858 87.12894297 -351.58498287 86.77153945 C-352.82256124 86.7001407 -354.0601396 86.62874195 -355.33522034 86.5551796 C-360.98229122 86.22938704 -360.98229122 86.22938704 -366.62936211 85.90359449 C-367.87504526 85.83172816 -369.12072842 85.75986182 -370.40415955 85.68581772 C-374.18728415 85.46756053 -377.97040876 85.24930334 -381.75353336 85.03104615 C-383.00396647 84.95890578 -384.25439959 84.88676541 -385.54272461 84.81243896 C-393.125 84.375 -393.125 84.375 -400.70727539 83.93756104 C-401.9577085 83.86542066 -403.20814161 83.79328029 -404.49646664 83.71895385 C-407.0198005 83.57337689 -409.54313437 83.42779994 -412.06646824 83.28222299 C-413.31366107 83.21026955 -414.5608539 83.13831612 -415.84584045 83.06418228 C-419.61591021 82.84667826 -423.38597997 82.62917423 -427.15604973 82.41167021 C-428.39643061 82.34010977 -429.63681149 82.26854934 -430.91477966 82.1948204 C-438.35985311 81.76529694 -445.80492655 81.33577347 -453.25 80.90625 C-454.45985188 80.83645085 -455.66970375 80.76665171 -456.9162178 80.69473743 C-458.12014553 80.62528007 -459.32407326 80.5558227 -460.56448364 80.48426056 C-461.76321956 80.41510272 -462.96195547 80.34594488 -464.19701672 80.27469134 C-468.99326197 79.99798489 -473.78950723 79.72127843 -478.58575249 79.44457197 C-479.76014948 79.3768183 -480.93454647 79.30906463 -482.14453125 79.23925781 C-490.31280772 78.76801109 -498.48108419 78.29676437 -506.64936066 77.82551765 C-508.36980213 77.72626142 -508.36980213 77.72626142 -510.125 77.625 C-511.27929253 77.5584062 -512.43358505 77.4918124 -513.62285614 77.42320061 C-514.77773781 77.35657282 -515.93261948 77.28994503 -517.12249756 77.22129822 C-521.73327637 76.95529175 -526.34405518 76.68928528 -530.95483398 76.42327881 C-532.07420349 76.3586998 -533.193573 76.29412079 -534.34686279 76.22758484 C-537.64896647 76.03707886 -540.95107015 75.84657288 -544.25317383 75.65606689 C-545.31423466 75.59485185 -546.37529549 75.5336368 -547.46850967 75.47056675 C-558.20266914 74.85128832 -558.20266914 74.85128832 -568.93682861 74.23200989 C-570.38613596 74.148396 -570.38613596 74.148396 -571.86472225 74.06309295 C-572.80864614 74.0086358 -573.75257002 73.95417865 -574.72509766 73.89807129 C-575.6390735 73.84534191 -576.55304934 73.79261254 -577.49472141 73.7382853 C-580.94041189 73.53949547 -584.38610236 73.34070563 -587.83179283 73.1419158 C-588.625506 73.09612465 -589.41921917 73.05033351 -590.23698425 73.00315475 C-593.86632284 72.79376984 -597.49566142 72.58438492 -601.125 72.375 C-601.125 77.325 -601.125 82.275 -601.125 87.375 C-597.68682861 87.3586853 -597.68682861 87.3586853 -594.17919922 87.34204102 C-571.66565937 87.25954428 -549.18759961 87.60017759 -526.68395996 88.24383545 C-523.40687697 88.33628538 -520.1296631 88.42350175 -516.85243607 88.51067162 C-498.93645028 88.98811147 -481.02905203 89.55171057 -463.125 90.375 C-463.125 90.705 -463.125 91.035 -463.125 91.375 C-497.91883564 91.60498671 -532.65915171 91.00037669 -567.43908691 90.04260254 C-572.69889317 89.89988113 -577.95889576 89.76526749 -583.21891308 89.63058567 C-588.31894323 89.49919082 -593.41885202 89.3635103 -598.51873207 89.22642326 C-600.93444038 89.16186931 -603.35018022 89.0984839 -605.76595116 89.03631783 C-609.09825083 88.94979384 -612.43034775 88.85765691 -615.76245117 88.76391602 C-616.74439957 88.73945908 -617.72634796 88.71500214 -618.73805237 88.68980408 C-619.64318573 88.66318695 -620.54831909 88.63656982 -621.48088074 88.60914612 C-622.65252667 88.57734426 -622.65252667 88.57734426 -623.84784222 88.54489994 C-626.125 88.375 -626.125 88.375 -631.125 87.375 C-631.125 140.835 -631.125 194.295 -631.125 249.375 C-631.785 249.375 -632.445 249.375 -633.125 249.375 C-633.125 195.585 -633.125 141.795 -633.125 86.375 C-623.225 86.375 -613.325 86.375 -603.125 86.375 C-603.125 81.095 -603.125 75.815 -603.125 70.375 C-594.67268692 70.26048941 -586.36120801 70.70291979 -577.9375 71.375 C-576.69935547 71.47039062 -575.46121094 71.56578125 -574.18554688 71.6640625 C-571.16507361 71.89730368 -568.14499321 72.13562333 -565.125 72.375 C-565.125 66.105 -565.125 59.835 -565.125 53.375 C-546.08653201 54.9240617 -527.06129595 56.61056669 -508.03832626 58.33771896 C-506.37126572 58.48907191 -504.70419448 58.64030713 -503.03711319 58.79143143 C-477.73027773 61.08574353 -452.43781074 63.49844892 -427.15354156 66.02853775 C-400.67283827 68.67740819 -374.17641119 71.11856413 -347.67028427 73.49845886 C-316.48463648 76.29948341 -285.31930995 79.27721583 -254.1598587 82.35542297 C-230.71876523 84.67093787 -207.27910252 86.955942 -183.8125 89 C-162.83661604 90.82724236 -141.87964596 92.82223378 -120.92593765 94.88622284 C-118.51972129 95.1230589 -116.1134307 95.35912773 -113.7071228 95.59503174 C-109.93422742 95.96517203 -106.16157395 96.33768707 -102.38910866 96.71218491 C-100.99436385 96.85042197 -99.5995578 96.98804267 -98.20468712 97.12500381 C-96.28128353 97.31411963 -94.35816401 97.50611789 -92.43505859 97.69824219 C-91.35598236 97.8052948 -90.27690613 97.91234741 -89.16513062 98.02264404 C-86.12958359 98.37446876 -83.13435332 98.84637793 -80.125 99.375 C-80.41375 98.72273438 -80.7025 98.07046875 -81 97.3984375 C-85.00171233 87.97773973 -85.00171233 87.97773973 -84.125 83.375 C-82.484375 81.2265625 -82.484375 81.2265625 -80.125 79.375 C-77.109375 78.984375 -77.109375 78.984375 -73.875 79.125 C-72.79734375 79.16109375 -71.7196875 79.1971875 -70.609375 79.234375 C-69.78953125 79.28078125 -68.9696875 79.3271875 -68.125 79.375 C-67.795 77.725 -67.465 76.075 -67.125 74.375 C-64.485 74.375 -61.845 74.375 -59.125 74.375 C-59.00125 73.075625 -59.00125 73.075625 -58.875 71.75 C-57.43106275 65.25228239 -53.52142623 60.97261749 -48.125 57.375 C-44.25 57.0625 -44.25 57.0625 -41.125 57.375 C-45.6004809 50.08162373 -51.76999163 46.17576358 -58.69921875 41.375 C-62.23657077 38.45853585 -62.99881746 36.51064287 -63.5 32 C-62.97301012 26.90576451 -61.13454283 24.1978154 -57.359375 20.7734375 C-51.06654566 15.74412901 -45.4736454 13.4201202 -37.4375 13 C-33.49862428 12.73415302 -32.46351199 12.65333208 -29.3125 10.0625 C-28.590625 9.175625 -27.86875 8.28875 -27.125 7.375 C-19.06192244 0.99954332 -9.98984574 -0.12469988 0 0 Z " fill="#F8F8FF" transform="translate(729.125,59.625)"/>
<path d="M0 0 C0.93714844 -0.01160156 1.87429688 -0.02320313 2.83984375 -0.03515625 C11.07164373 -0.00061723 17.68899606 1.55287864 23.875 7.375 C26.57887083 11.43080625 26.51761481 14.61305952 25.875 19.375 C24.375 22.3125 24.375 22.3125 21.875 25.375 C20.51723679 27.03873802 19.16338598 28.70567313 17.8125 30.375 C16.80509766 31.5815625 16.80509766 31.5815625 15.77734375 32.8125 C11.40912538 38.69658881 10.46744527 42.94334932 10.75 50.0625 C10.98094214 58.05717357 10.98094214 58.05717357 9.875 61.375 C8.99809095 69.62131777 10.47608528 77.82338429 15.75 84.375 C18.18798956 86.9653639 20.37530554 88.44861029 23.875 89.375 C23.875 89.705 23.875 90.035 23.875 90.375 C21.895 90.375 19.915 90.375 17.875 90.375 C18.12894531 91.344375 18.38289062 92.31375 18.64453125 93.3125 C21.12887023 102.93991889 23.15620074 112.58305269 24.875 122.375 C27.25162822 122.2873127 29.62483127 122.18036886 32 122.0625 C32.66515625 122.03994141 33.3303125 122.01738281 34.015625 121.99414062 C38.63786084 121.74490242 41.91536672 120.75552916 45.875 118.375 C46.390625 117.7975 46.90625 117.22 47.4375 116.625 C48.875 115.375 48.875 115.375 51.3125 115.375 C54.82024678 116.74387679 55.99915562 118.10964126 57.875 121.375 C58.50370677 126.32606583 58.42898784 128.34343643 56.0625 132.75 C52.47000978 137.06098827 49.77812517 137.71722824 44.375 138.375 C43.40868652 138.49355347 43.40868652 138.49355347 42.42285156 138.61450195 C40.2412547 138.87752221 38.05827478 139.12631338 35.875 139.375 C35.04548828 139.47345215 34.21597656 139.5719043 33.36132812 139.67333984 C30.78346118 139.97835834 28.20458204 140.27237103 25.625 140.5625 C24.39233398 140.70655273 24.39233398 140.70655273 23.13476562 140.85351562 C19.68382038 141.22542201 17.20748001 141.48582667 13.875 140.375 C13.318125 141.15875 12.76125 141.9425 12.1875 142.75 C6.07914615 148.75626437 -5.20977454 147.54521543 -13.25 147.625 C-13.98444336 147.63442627 -14.71888672 147.64385254 -15.47558594 147.65356445 C-19.2315602 147.63036321 -20.92367448 147.50921701 -24.125 145.375 C-24.33044434 146.16737061 -24.53588867 146.95974121 -24.74755859 147.77612305 C-26.125 150.375 -26.125 150.375 -28.79541016 151.40161133 C-30.46289307 151.67654419 -30.46289307 151.67654419 -32.1640625 151.95703125 C-33.99517578 152.27124023 -33.99517578 152.27124023 -35.86328125 152.59179688 C-37.14589844 152.78837891 -38.42851563 152.98496094 -39.75 153.1875 C-41.00941406 153.40341797 -42.26882813 153.61933594 -43.56640625 153.84179688 C-49.81776572 154.8749439 -55.78943812 155.6542754 -62.125 155.375 C-62.09244792 153.35677083 -62.05989583 151.33854167 -62.02734375 149.3203125 C-61.99850758 147.29314596 -61.99850758 147.29314596 -63.125 145.375 C-63.455 145.375 -63.785 145.375 -64.125 145.375 C-63.795 146.035 -63.465 146.695 -63.125 147.375 C-63.085008 149.37460012 -63.08153201 151.37547242 -63.125 153.375 C-65 153.0625 -65 153.0625 -67.125 152.375 C-69.44090289 148.90114567 -69.39491835 147.41069994 -69.375 143.3125 C-69.38015625 142.24902344 -69.3853125 141.18554688 -69.390625 140.08984375 C-69.125 137.375 -69.125 137.375 -67.125 135.375 C-65.805 135.375 -64.485 135.375 -63.125 135.375 C-63.13023682 134.3962793 -63.13547363 133.41755859 -63.14086914 132.40917969 C-63.15899561 128.77133095 -63.17045997 125.13348619 -63.17993164 121.49560547 C-63.18495437 119.92235645 -63.19177375 118.34911208 -63.20043945 116.77587891 C-63.21259529 114.51203257 -63.21824896 112.24824807 -63.22265625 109.984375 C-63.22781754 109.28318542 -63.23297882 108.58199585 -63.23829651 107.85955811 C-63.23867502 104.55014249 -63.15014727 101.53912237 -62.125 98.375 C-61.465 98.375 -60.805 98.375 -60.125 98.375 C-60.125 97.385 -60.125 96.395 -60.125 95.375 C-60.785 95.375 -61.445 95.375 -62.125 95.375 C-62.62 87.95 -62.62 87.95 -63.125 80.375 C-64.115 80.045 -65.105 79.715 -66.125 79.375 C-66.125 78.055 -66.125 76.735 -66.125 75.375 C-62.86833728 75.93649357 -61.16876677 76.74729986 -59.125 79.375 C-58.13092192 82.46041744 -58.00348204 85.28174355 -58.01147461 88.51074219 C-58.01155014 89.53149841 -58.01162567 90.55225464 -58.01170349 91.60394287 C-58.01686478 92.69886047 -58.02202606 93.79377808 -58.02734375 94.921875 C-58.0287587 96.0482135 -58.03017365 97.174552 -58.03163147 98.33502197 C-58.03722801 101.93170835 -58.0497799 105.52833244 -58.0625 109.125 C-58.06751545 111.56380118 -58.07207828 114.00260334 -58.07617188 116.44140625 C-58.0871963 122.41929208 -58.10393102 128.39714159 -58.125 134.375 C-56.8771875 134.05789062 -55.629375 133.74078125 -54.34375 133.4140625 C-47.86817469 131.7684101 -41.77065857 131.3338079 -35.125 131.375 C-35.01430176 130.77550537 -34.90360352 130.17601074 -34.78955078 129.55834961 C-34.27984636 126.80907506 -33.76496278 124.06079426 -33.25 121.3125 C-33.07597656 120.36955078 -32.90195312 119.42660156 -32.72265625 118.45507812 C-31.75895564 113.33318785 -30.65892033 108.3567863 -29.125 103.375 C-30.775 103.375 -32.425 103.375 -34.125 103.375 C-33.568125 102.983125 -33.01125 102.59125 -32.4375 102.1875 C-27.70763153 98.48030579 -24.35510251 95.00488414 -22.125 89.375 C-21.79946977 86.21674796 -21.88600672 83.10700884 -22 79.9375 C-22.15199472 74.24663905 -21.93384325 69.02473966 -21.125 63.375 C-20.95428312 59.4995099 -20.93996117 55.62880162 -20.9375 51.75 C-20.91913086 50.21472656 -20.91913086 50.21472656 -20.90039062 48.6484375 C-20.89845703 47.6584375 -20.89652344 46.6684375 -20.89453125 45.6484375 C-20.89042236 44.75560059 -20.88631348 43.86276367 -20.88208008 42.94287109 C-21.15304964 40.07849133 -21.85897266 37.95205899 -23.125 35.375 C-24.95784443 34.24983915 -24.95784443 34.24983915 -27.125 33.375 C-30.3874761 31.04465993 -32.80036901 29.22847197 -34.125 25.375 C-34.125 24.055 -34.125 22.735 -34.125 21.375 C-44.98757779 22.63050927 -44.98757779 22.63050927 -54.0625 28.25 C-55.271409 30.33540358 -55.271409 30.33540358 -55.3125 32.75 C-52.84624098 38.20173046 -46.87303796 40.94931924 -41.875 43.875 C-38.17356535 46.15839977 -36.10271694 48.41956612 -34.125 52.375 C-33.375 56.25 -33.375 56.25 -33.125 59.375 C-40.54408714 58.13848548 -40.54408714 58.13848548 -43.3125 54.5 C-44.2096875 52.953125 -44.2096875 52.953125 -45.125 51.375 C-49.39317673 47.69757438 -54.07290064 44.5802434 -58.69921875 41.375 C-62.23657077 38.45853585 -62.99881746 36.51064287 -63.5 32 C-62.97301012 26.90576451 -61.13454283 24.1978154 -57.359375 20.7734375 C-51.06654566 15.74412901 -45.4736454 13.4201202 -37.4375 13 C-33.49862428 12.73415302 -32.46351199 12.65333208 -29.3125 10.0625 C-28.590625 9.175625 -27.86875 8.28875 -27.125 7.375 C-19.06192244 0.99954332 -9.98984574 -0.12469988 0 0 Z " fill="#0C0C10" transform="translate(729.125,59.625)"/>
<path d="M0 0 C0.495 1.794375 0.495 1.794375 1 3.625 C2.64310631 8.10404461 5.09316843 9.99211884 9.0625 12.48046875 C11.6795937 14.5329878 12.69717944 15.89172749 14 19 C14.38714944 22.71564393 14.32654229 26.39356352 14.25 30.125 C14.24484375 31.10726562 14.2396875 32.08953125 14.234375 33.1015625 C14.17291733 38.94004076 13.78039978 44.67875842 13.20068359 50.48632812 C12.92649363 53.92070756 13.04979879 57.24496979 13.1875 60.6875 C13.22421792 66.70923826 12.83272575 71.21833572 9 76 C6.71809758 78.11890939 4.76653461 79.61673269 2 81 C2.99 81.33 3.98 81.66 5 82 C4.26372745 87.66776473 3.18582301 93.22280532 2 98.8125 C1.82210937 99.67037109 1.64421875 100.52824219 1.4609375 101.41210938 C1.28820312 102.23130859 1.11546875 103.05050781 0.9375 103.89453125 C0.70353516 105.00598511 0.70353516 105.00598511 0.46484375 106.13989258 C0 108 0 108 -1 110 C-3.22485352 110.50244141 -3.22485352 110.50244141 -6.12890625 110.8515625 C-7.68061523 111.04492188 -7.68061523 111.04492188 -9.26367188 111.2421875 C-10.35228516 111.36851562 -11.44089844 111.49484375 -12.5625 111.625 C-14.2012207 111.82609375 -14.2012207 111.82609375 -15.87304688 112.03125 C-18.58114631 112.36237133 -21.2899984 112.68489088 -24 113 C-24.00808685 112.37217117 -24.01617371 111.74434235 -24.02450562 111.0974884 C-24.110599 104.55982289 -24.210105 98.02245892 -24.31738281 91.48510742 C-24.35565302 89.04570583 -24.3905093 86.60624818 -24.421875 84.16674805 C-24.46756745 80.65913873 -24.52555605 77.15191466 -24.5859375 73.64453125 C-24.59748871 72.55477493 -24.60903992 71.46501862 -24.62094116 70.34223938 C-24.64081085 69.32155869 -24.66068054 68.30087799 -24.68115234 67.24926758 C-24.69447601 66.35436111 -24.70779968 65.45945465 -24.7215271 64.53742981 C-25.03294735 61.69978555 -25.73794114 59.55607843 -27 57 C-29.01735205 55.65589738 -29.01735205 55.65589738 -31 55 C-31 55.99 -31 56.98 -31 58 C-30.50886719 58.41894531 -30.01773438 58.83789062 -29.51171875 59.26953125 C-27.19428971 61.92229886 -27.71034053 64.24813121 -27.8125 67.6875 C-27.83957031 68.86699219 -27.86664062 70.04648438 -27.89453125 71.26171875 C-27.92933594 72.16535156 -27.96414063 73.06898438 -28 74 C-27.34 74 -26.68 74 -26 74 C-26 74.99 -26 75.98 -26 77 C-26.66 77 -27.32 77 -28 77 C-28 78.32 -28 79.64 -28 81 C-33.61 80.67 -39.22 80.34 -45 80 C-50.72821577 67.11151452 -50.72821577 67.11151452 -50 62 C-48.390625 59.640625 -48.390625 59.640625 -46 58 C-42.984375 57.609375 -42.984375 57.609375 -39.75 57.75 C-38.67234375 57.78609375 -37.5946875 57.8221875 -36.484375 57.859375 C-35.66453125 57.90578125 -34.8446875 57.9521875 -34 58 C-33.67 56.35 -33.34 54.7 -33 53 C-30.36 53 -27.72 53 -25 53 C-24.9175 52.13375 -24.835 51.2675 -24.75 50.375 C-23.58806982 45.1463142 -20.93917645 42.02862182 -17.375 38.125 C-12.33711156 34.95299617 -7.41335115 35.22476431 -1.6953125 36.5234375 C-1.13585937 36.68070313 -0.57640625 36.83796875 0 37 C-0.40052227 31.52619564 -2.17255823 27.84558131 -6 24 C-8.17556297 22.59851374 -10.40168224 21.42380073 -12.703125 20.2421875 C-16.25419624 18.3217102 -19.4980429 16.21098077 -22 13 C-22.3125 9.9375 -22.3125 9.9375 -21 7 C-14.75103589 0.60571114 -8.68466029 -0.34738641 0 0 Z " fill="#5152FB" transform="translate(695,81)"/>
<path d="M0 0 C0.78503906 -0.020625 1.57007813 -0.04125 2.37890625 -0.0625 C7.04402018 -0.09396788 10.10181121 0.20297207 13.875 3.25 C15.875 6.25 15.875 6.25 15.80078125 9.5625 C14.70568273 13.92441141 13.0699932 15.93867513 10.0625 19.25 C2.36934205 27.99067901 -0.73643966 34.40808137 -0.125 46.25 C0.39351986 50.01653958 1.15180935 53.71850434 1.9375 57.4375 C2.15647949 58.50250732 2.37545898 59.56751465 2.60107422 60.66479492 C6.1014262 77.43580502 9.96433907 94.16864983 14.33740234 110.7331543 C14.875 113.25 14.875 113.25 14.875 117.25 C4.41421235 118.81131159 -6.0437123 120.31970252 -16.5625 121.4375 C-17.3356958 121.52112793 -18.1088916 121.60475586 -18.90551758 121.69091797 C-19.63665771 121.76584473 -20.36779785 121.84077148 -21.12109375 121.91796875 C-22.06746704 122.01501099 -22.06746704 122.01501099 -23.03295898 122.11401367 C-25.73293362 122.28951675 -28.42020508 122.27041264 -31.125 122.25 C-27.50234631 101.50885156 -23.75831733 80.79315582 -19.125 60.25 C-16.815 60.25 -14.505 60.25 -12.125 60.25 C-12.785 59.26 -13.445 58.27 -14.125 57.25 C-17.65172624 50.15876116 -17.41020581 40.5695714 -15.18359375 33.0859375 C-14.45781893 31.29046668 -13.72026569 29.49969352 -12.96875 27.71484375 C-11.59885196 23.71296569 -11.75680641 20.2338578 -13.125 16.25 C-16.50945864 11.63482912 -21.01124848 9.52136854 -26.125 7.25 C-19.57246556 -0.31061666 -9.33589199 0.06192963 0 0 Z " fill="#5152FB" transform="translate(732.125,66.75)"/>
<path d="M0 0 C5.42315546 2.56367349 9.8821542 6.99578942 12 12.6875 C12.8223687 15.2463291 12.8223687 15.2463291 15.5625 16.375 C18 18 18 18 18.671875 20.94311523 C19.54005964 28.84681193 18.63878636 36.94262759 18.17822266 44.85180664 C18.05934979 46.9933094 17.95486752 49.13565919 17.86474609 51.27856445 C17.73364608 54.38754173 17.55918929 57.49142505 17.375 60.59765625 C17.34237061 61.550923 17.30974121 62.50418976 17.27612305 63.48634338 C16.93167799 68.4142236 16.38469849 71.23529993 12.6015625 74.58764648 C8.01475135 78.02434296 3.87537093 78.13002318 -1.6875 78.0625 C-2.38939453 78.05798828 -3.09128906 78.05347656 -3.81445312 78.04882812 C-5.54300538 78.03706927 -7.27151365 78.01913454 -9 78 C-11.77764495 67.39701014 -14.10498846 56.79582332 -16 46 C-14.515 45.505 -14.515 45.505 -13 45 C-13.45890625 44.6596875 -13.9178125 44.319375 -14.390625 43.96875 C-19.88350515 39.62983627 -22.69944617 35.22679995 -24.75 28.5625 C-26.19565217 13.74456522 -26.19565217 13.74456522 -22.75 9.4375 C-22.1725 8.963125 -21.595 8.48875 -21 8 C-20.195625 7.175 -19.39125 6.35 -18.5625 5.5 C-12.55106586 -0.36481379 -8.36207907 -0.99895978 0 0 Z " fill="#5152FC" transform="translate(763,104)"/>
<path d="M0 0 C1.2062252 3.61867559 1.10816918 6.92506251 1.0625 10.6875 C1.05798828 11.38939453 1.05347656 12.09128906 1.04882812 12.81445312 C1.03706927 14.54300538 1.01913454 16.27151365 1 18 C1.91748268 17.94029274 1.91748268 17.94029274 2.85350037 17.87937927 C9.19531532 17.4677041 15.53756644 17.0633511 21.88012695 16.66333008 C24.25003976 16.51288266 26.61983312 16.36054148 28.98950195 16.20629883 C32.38723929 15.98546365 35.78534206 15.7713478 39.18359375 15.55859375 C40.25024765 15.48781113 41.31690155 15.4170285 42.4158783 15.34410095 C43.88729027 15.25389427 43.88729027 15.25389427 45.38842773 15.16186523 C46.25668686 15.10634995 47.12494598 15.05083466 48.01951599 14.99363708 C50 15 50 15 51 16 C51.08631874 17.34267413 51.10706473 18.68974322 51.09765625 20.03515625 C51.09443359 20.84404297 51.09121094 21.65292969 51.08789062 22.48632812 C51.07951172 23.33646484 51.07113281 24.18660156 51.0625 25.0625 C51.05798828 25.91650391 51.05347656 26.77050781 51.04882812 27.65039062 C51.03700373 29.76695663 51.01906769 31.88348685 51 34 C55.455 33.505 55.455 33.505 60 33 C69.24 33 78.48 33 88 33 C88 86.79 88 140.58 88 196 C87.67 196 87.34 196 87 196 C87 142.54 87 89.08 87 34 C83.7 34.33 80.4 34.66 77 35 C74.22326268 35.13741125 71.45981475 35.25098078 68.68205261 35.32112122 C67.51782421 35.3549132 67.51782421 35.3549132 66.33007604 35.38938785 C63.75553438 35.46325906 61.18088339 35.53204671 58.60620117 35.60083008 C56.73879124 35.65337675 54.87139033 35.70624466 53.0039978 35.75940609 C48.97404127 35.87343627 44.94403039 35.98519301 40.91396141 36.0951767 C34.4393114 36.27187616 27.96480636 36.45354908 21.49031067 36.63580322 C12.22154449 36.89621024 2.95271518 37.15425444 -6.31616211 37.41067505 C-20.89252651 37.81403008 -35.46874221 38.22259736 -50.04492188 38.63256836 C-51.25213512 38.66652022 -52.45934837 38.70047207 -53.70314384 38.73545277 C-59.7813753 38.90641958 -65.8596044 39.0774704 -71.93783188 39.24857903 C-76.79245402 39.38522228 -81.64708113 39.52168692 -86.5017128 39.65799141 C-124.07530419 40.71297442 -161.64759653 41.80267638 -199.21855545 42.94742966 C-205.53817392 43.13973729 -211.85783308 43.33069724 -218.17749023 43.52172852 C-227.91066324 43.81608448 -237.64383144 44.11059863 -247.37698996 44.4054333 C-249.44026418 44.46793092 -251.50353882 44.53041473 -253.56681347 44.59289837 C-260.61883703 44.80649051 -267.67085307 45.02032752 -274.72285581 45.23460644 C-296.81602816 45.90590614 -318.90931877 46.572995 -341.00289536 47.23087025 C-351.45861766 47.54235223 -361.91422474 47.85723472 -372.36969602 48.17703396 C-379.5282842 48.39566428 -386.68699791 48.60983686 -393.8458153 48.82082695 C-397.98205739 48.94286046 -402.11822508 49.06662245 -406.25425339 49.19571495 C-429.84164215 49.93012244 -453.4016202 50.11896802 -477 50 C-477 53.96 -477 57.92 -477 62 C-477.33 62 -477.66 62 -478 62 C-478 56.06 -478 50.12 -478 44 C-477.67 45.32 -477.34 46.64 -477 48 C-476.35562988 47.91435791 -475.71125977 47.82871582 -475.04736328 47.74047852 C-472.07345738 47.3461764 -469.09923311 46.95432605 -466.125 46.5625 C-465.11179687 46.42779297 -464.09859375 46.29308594 -463.0546875 46.15429688 C-445.54815013 43.85375831 -445.54815013 43.85375831 -437.625 43.875 C-436.15933594 43.87113281 -436.15933594 43.87113281 -434.6640625 43.8671875 C-432 44 -432 44 -430.08264768 44.51448184 C-426.44023972 45.3636198 -422.7182688 44.83103473 -419.01528931 44.5801239 C-418.09447797 44.52270848 -417.17366663 44.46529305 -416.22495192 44.40613776 C-413.12303015 44.21118768 -410.02176091 44.00728545 -406.92041016 43.8034668 C-404.6905411 43.66148538 -402.46063684 43.52005578 -400.23070049 43.37913513 C-394.11959182 42.99136281 -388.00900631 42.59583094 -381.89847779 42.19903541 C-375.393722 41.77798812 -368.8885113 41.36408936 -362.38334656 40.94941711 C-351.25331396 40.23919796 -340.12359455 39.52420591 -328.99404907 38.80639648 C-313.10978301 37.78198923 -297.22501887 36.76547954 -281.34010279 35.75120711 C-274.12100884 35.29024904 -266.90193924 34.8289101 -259.68287659 34.36746216 C-258.96935132 34.32185363 -258.25582605 34.2762451 -257.52067881 34.2292545 C-241.03915891 33.17566626 -224.55788252 32.1182897 -208.07666016 31.06005859 C-207.38500834 31.01564977 -206.69335653 30.97124096 -205.98074557 30.92548642 C-195.98715335 30.28381896 -185.99357543 29.64192887 -176 29 C-166.94971325 28.41868575 -157.8994219 27.83744311 -148.84912109 27.25634766 C-147.80657653 27.18940551 -146.76403197 27.12246336 -145.68989515 27.05349267 C-129.59338785 26.0200325 -113.49664972 24.99022396 -97.39967728 23.96403408 C-88.26995374 23.38181171 -79.14048661 22.7958449 -70.01134533 22.20456117 C-63.89811891 21.80883427 -57.78466147 21.41683106 -51.67100102 21.02786738 C-48.24310405 20.80964397 -44.81539602 20.58915652 -41.38788414 20.36492348 C-27.89519075 19.48299442 -14.52337764 18.79771583 -1 19 C-1 13.06 -1 7.12 -1 1 C-2.46140411 1.18837999 -3.92280823 1.37675999 -5.42849731 1.57084846 C-19.72371725 3.39625079 -34.02813814 4.99328136 -48.3671875 6.42919922 C-50.59881395 6.65483853 -52.83041486 6.88073057 -55.06199265 7.10685062 C-61.07599514 7.71553199 -67.09034167 8.32074836 -73.10475826 8.92532229 C-79.52213835 9.57104501 -85.93918088 10.22010587 -92.35626221 10.86878967 C-103.26748032 11.97134539 -114.17889297 13.07195652 -125.0904541 14.17111206 C-141.31267833 15.80525237 -157.53453475 17.44302297 -173.75630671 19.08164613 C-180.07632071 19.72004237 -186.39634508 20.35833598 -192.71636963 20.99662781 C-193.40787455 21.06646772 -194.09937946 21.13630764 -194.81183907 21.20826391 C-205.21660869 22.25910119 -215.62143803 23.30934569 -226.02630615 24.35920715 C-266.13661197 28.40644454 -306.24571569 32.46534146 -346.35308838 36.54154205 C-351.46867644 37.06132745 -356.58431547 37.58061015 -361.69995499 38.0998888 C-366.35122269 38.57210005 -371.00245718 39.04463764 -375.65367889 39.51730156 C-377.70362103 39.72558761 -379.75357255 39.93378133 -381.80353546 40.14186287 C-384.53995677 40.41967463 -387.27633011 40.69795465 -390.01269531 40.97631836 C-390.85389545 41.06159696 -391.6950956 41.14687555 -392.56178665 41.23473835 C-396.80024667 41.66619192 -401.03694483 42.11014219 -405.27209473 42.57302856 C-406.12958691 42.66599244 -406.98707909 42.75895632 -407.87055588 42.85473728 C-409.47796336 43.02967632 -411.08509236 43.20720444 -412.69185257 43.38799191 C-418.80283198 44.05148064 -424.85382701 44.22082059 -431 44 C-431 43.67 -431 43.34 -431 43 C-388.07657538 38.20621057 -345.10377789 33.88450103 -302.13610342 29.51018283 C-297.00667989 28.98790753 -291.87729153 28.46528712 -286.74790001 27.94269753 C-269.66580767 26.20245879 -252.58364746 24.46288896 -235.50125599 22.7255888 C-234.41875212 22.61549517 -233.33624825 22.50540155 -232.22094123 22.39197176 C-231.13633334 22.28166423 -230.05172545 22.17135671 -228.93425065 22.05770653 C-226.73749834 21.83428946 -224.54074617 21.610871 -222.34399414 21.38745117 C-221.2544027 21.27663532 -220.16481126 21.16581946 -219.0422019 21.05164555 C-201.28214334 19.24524331 -183.52258484 17.43397194 -165.76322476 15.62071695 C-147.43672546 13.7496311 -129.1098067 11.88270021 -110.78246325 10.01990062 C-100.52812866 8.97754488 -90.27398267 7.93340637 -80.02030373 6.88461876 C-71.32175807 5.99491171 -62.62283811 5.10898258 -53.92340616 4.22798195 C-49.49217397 3.77911159 -45.06114131 3.32846905 -40.63058472 2.8729744 C-36.57187412 2.45575132 -32.51267285 2.04369123 -28.45303019 1.63564 C-26.9896888 1.48765383 -25.52653277 1.33781985 -24.06359563 1.18588945 C-16.01229609 0.35087839 -8.09673786 -0.21430724 0 0 Z M23.40332031 17.78759766 C22.06559542 17.87389614 20.72784795 17.95984529 19.39008045 18.04548073 C16.49156779 18.23176483 13.5932267 18.42047182 10.69499397 18.6110611 C5.93155498 18.9242555 1.16775921 19.23179081 -3.59608459 19.53875732 C-10.60428738 19.99086489 -17.61232782 20.44541834 -24.62026978 20.90155029 C-42.90422381 22.09131966 -61.18911353 23.26660935 -79.47398019 24.4422555 C-82.58147268 24.64209633 -85.68895619 24.84207642 -88.79643822 25.04207993 C-143.46384553 28.55981015 -198.13814881 31.96721445 -252.8125 35.375 C-255.20786043 35.52431305 -257.60322074 35.67362791 -259.99858093 35.82294464 C-264.71342356 36.11684623 -269.4282667 36.41073969 -274.14311028 36.70462608 C-283.30947707 37.27598978 -292.47584049 37.8474075 -301.64220047 38.41888046 C-306.0715365 38.69502473 -310.50087589 38.97111483 -314.93021774 39.24716568 C-355.95521045 41.80417562 -396.97821138 44.39211776 -438 47 C-438 47.33 -438 47.66 -438 48 C-418.11220146 48.19759299 -398.27200431 47.65091316 -378.39754748 47.01830196 C-373.75882332 46.87161748 -369.11995181 46.72973703 -364.48109436 46.58734131 C-356.40042327 46.33876818 -348.3198314 46.08775181 -340.23928833 45.83505249 C-319.36579425 45.18251961 -298.49189022 44.54326434 -277.61798596 43.9040091 C-274.10008185 43.79623126 -270.58218226 43.68830682 -267.06428337 43.58035851 C-228.43781959 42.39561476 -189.81016478 41.25535601 -151.18169433 40.13839135 C-149.10181315 40.07824521 -147.02193265 40.01807543 -144.94205236 39.95789838 C-117.78370907 39.17215863 -90.62527255 38.38967779 -63.46672159 37.61114872 C-53.24812597 37.31815395 -43.02956274 37.02404524 -32.81102079 36.72918427 C-25.75266285 36.5256017 -18.69426445 36.32351232 -11.63582766 36.12268299 C-7.299693 35.99896263 -2.96360001 35.87382636 1.37248325 35.74831879 C3.3406389 35.69163045 5.30881082 35.63550292 7.27700138 35.58003986 C21.19141148 35.18753041 35.09462679 34.63638093 49 34 C49 28.39 49 22.78 49 17 C40.42520731 16.91804351 31.95754985 17.21748085 23.40332031 17.78759766 Z " fill="#C7C7FF" transform="translate(1257,113)"/>
<path d="M0 0 C13.1085143 1.06420603 26.21187373 2.18055462 39.31008911 3.36459351 C40.75981564 3.4956081 42.20958327 3.62616885 43.65939331 3.7562561 C50.78742286 4.39671356 57.90654656 5.04018993 65 6 C65 6.33 65 6.66 65 7 C51.61430134 7.54647897 38.41490551 5.898641 25.125 4.5 C22.78001461 4.25846618 20.43496289 4.01757547 18.08984375 3.77734375 C12.39243718 3.1923089 6.69599944 2.59857345 1 2 C1 7.61 1 13.22 1 19 C2.96800898 19.09793209 2.96800898 19.09793209 4.97577572 19.1978426 C48.38672059 21.36701235 91.77760866 23.85102174 135.16911313 26.37502356 C145.13750735 26.9547342 155.10605027 27.53186956 165.07460611 28.10879324 C182.84936623 29.13751407 200.62405765 30.16741614 218.39868164 31.19848633 C219.45210554 31.25959273 220.50552943 31.32069914 221.59087526 31.38365725 C233.40266067 32.06885381 245.21443004 32.75432632 257.02618408 33.44006348 C261.34728978 33.69092251 265.66839571 33.94177739 269.98950195 34.19262695 C271.05644175 34.25456569 272.12338155 34.31650443 273.22265286 34.38032009 C291.00968996 35.41284897 308.79684279 36.44336948 326.58408731 37.47231895 C337.50216822 38.10399086 348.4201461 38.73739188 359.33799481 39.37306473 C366.78391628 39.80646583 374.22994352 40.23801646 381.67605705 40.66810521 C385.96514304 40.91590679 390.25417525 41.16455985 394.54307938 41.4154911 C398.46955726 41.64520318 402.39616672 41.87251234 406.32289296 42.09793804 C407.73993617 42.17971127 409.15692932 42.26235814 410.57386435 42.34598502 C417.72759443 42.76772071 424.8332929 43.09686901 432 43 C430.02 42.67 428.04 42.34 426 42 C426 41.67 426 41.34 426 41 C438.75498165 40.4957398 451.22662351 42.0465 463.875 43.5 C466.0272647 43.74159066 468.17960808 43.98248151 470.33203125 44.22265625 C475.55562146 44.80704351 480.77817609 45.40004535 486 46 C486 46.66 486 47.32 486 48 C489.63 48 493.26 48 497 48 C497 48.33 497 48.66 497 49 C463.67456464 48.5567281 430.35708047 47.94354506 397.04017639 47.06517792 C394.58836254 47.00068034 392.13652987 46.93694413 389.68469238 46.87335205 C371.78197176 46.40720357 353.88870183 45.86861909 336 45 C336 44.67 336 44.34 336 44 C350.52 43.67 365.04 43.34 380 43 C374.78832031 42.69932617 369.57664062 42.39865234 364.20703125 42.08886719 C362.37427643 41.98313133 360.54152161 41.87739548 358.65322876 41.76845551 C357.824298 41.72063258 356.99536724 41.67280965 356.14131737 41.62353754 C354.34924507 41.52014875 352.55717278 41.41675997 350.76510048 41.31337118 C349.79052076 41.25714543 348.81594105 41.20091968 347.81182861 41.14299011 C343.78688558 40.91078186 339.76194255 40.67857361 335.73699951 40.44636536 C334.71717861 40.38752954 333.69735771 40.32869371 332.64663315 40.26807499 C326.26002312 39.89961672 326.26002312 39.89961672 319.87341309 39.53115845 C318.78467896 39.46834686 317.69594482 39.40553528 316.57421875 39.34082031 C309.76635742 38.94805908 309.76635742 38.94805908 302.95849609 38.55529785 C301.23955202 38.456128 301.23955202 38.456128 299.48588181 38.35495472 C295.99058787 38.15330315 292.49529394 37.95165157 289 37.75 C287.27955853 37.65074376 287.27955853 37.65074376 285.52436066 37.54948235 C283.20848687 37.41587424 280.89261309 37.28226614 278.57673931 37.14865804 C277.42686944 37.08231939 276.27699957 37.01598074 275.09228516 36.94763184 C266.82645067 36.47075677 258.56061618 35.9938817 250.29478168 35.51700664 C249.10510383 35.44837137 247.91542597 35.37973611 246.68969727 35.309021 C243.05687078 35.09943485 239.42404429 34.88984871 235.7912178 34.68026257 C233.97643999 34.57556385 233.97643999 34.57556385 232.125 34.46875 C225.93000571 34.11134648 219.73501142 33.75394297 213.54001713 33.39653945 C212.30243876 33.3251407 211.0648604 33.25374195 209.78977966 33.1801796 C206.02506574 32.96298456 202.26035182 32.74578953 198.49563789 32.52859449 C197.24995474 32.45672816 196.00427158 32.38486182 194.72084045 32.31081772 C190.93771585 32.09256053 187.15459124 31.87430334 183.37146664 31.65604615 C181.49581697 31.54783559 181.49581697 31.54783559 179.58227539 31.43743896 C174.52742513 31.14581299 169.47257487 30.85418701 164.41772461 30.56256104 C162.54207494 30.45435048 162.54207494 30.45435048 160.62853336 30.34395385 C158.1051995 30.19837689 155.58186563 30.05279994 153.05853176 29.90722299 C151.81133893 29.83526955 150.5641461 29.76331612 149.27915955 29.68918228 C145.50908979 29.47167826 141.73902003 29.25417423 137.96895027 29.03667021 C136.10837895 28.92932956 136.10837895 28.92932956 134.21022034 28.8198204 C126.76514689 28.39029694 119.32007345 27.96077347 111.875 27.53125 C110.06022219 27.42655128 110.06022219 27.42655128 108.2087822 27.31973743 C107.00485447 27.25028007 105.80092674 27.1808227 104.56051636 27.10926056 C103.36178044 27.04010272 102.16304453 26.97094488 100.92798328 26.89969134 C96.13173803 26.62298489 91.33549277 26.34627843 86.53924751 26.06957197 C85.36485052 26.0018183 84.19045353 25.93406463 82.98046875 25.86425781 C74.81219228 25.39301109 66.64391581 24.92176437 58.47563934 24.45051765 C56.75519787 24.35126142 56.75519787 24.35126142 55 24.25 C53.84570747 24.1834062 52.69141495 24.1168124 51.50214386 24.04820061 C50.34726219 23.98157282 49.19238052 23.91494503 48.00250244 23.84629822 C43.39172363 23.58029175 38.78094482 23.31428528 34.17016602 23.04827881 C33.05079651 22.9836998 31.931427 22.91912079 30.77813721 22.85258484 C27.47603353 22.66207886 24.17392985 22.47157288 20.87182617 22.28106689 C19.81076534 22.21985185 18.74970451 22.1586368 17.65649033 22.09556675 C6.92233086 21.47628832 6.92233086 21.47628832 -3.81182861 20.85700989 C-4.77803351 20.8012673 -5.74423841 20.74552471 -6.73972225 20.68809295 C-7.68364614 20.6336358 -8.62757002 20.57917865 -9.60009766 20.52307129 C-10.97106142 20.44397723 -10.97106142 20.44397723 -12.36972141 20.3632853 C-15.81541189 20.16449547 -19.26110236 19.96570563 -22.70679283 19.7669158 C-23.500506 19.72112465 -24.29421917 19.67533351 -25.11198425 19.62815475 C-30.55599213 19.31407738 -30.55599213 19.31407738 -36 19 C-36 23.95 -36 28.9 -36 34 C-32.56182861 33.9836853 -32.56182861 33.9836853 -29.05419922 33.96704102 C-6.54065937 33.88454428 15.93740039 34.22517759 38.44104004 34.86883545 C41.71812303 34.96128538 44.9953369 35.04850175 48.27256393 35.13567162 C66.18854972 35.61311147 84.09594797 36.17671057 102 37 C102 37.33 102 37.66 102 38 C67.20616436 38.22998671 32.46584829 37.62537669 -2.31408691 36.66760254 C-7.57389317 36.52488113 -12.83389576 36.39026749 -18.09391308 36.25558567 C-23.19394323 36.12419082 -28.29385202 35.9885103 -33.39373207 35.85142326 C-35.80944038 35.78686931 -38.22518022 35.7234839 -40.64095116 35.66131783 C-43.97325083 35.57479384 -47.30534775 35.48265691 -50.63745117 35.38891602 C-51.61939957 35.36445908 -52.60134796 35.34000214 -53.61305237 35.31480408 C-54.51818573 35.28818695 -55.42331909 35.26156982 -56.35588074 35.23414612 C-57.52752667 35.20234426 -57.52752667 35.20234426 -58.72284222 35.16989994 C-61 35 -61 35 -66 34 C-66 87.46 -66 140.92 -66 196 C-66.66 196 -67.32 196 -68 196 C-68 142.21 -68 88.42 -68 33 C-58.1 33 -48.2 33 -38 33 C-38 27.72 -38 22.44 -38 17 C-29.54768692 16.88548941 -21.23620801 17.32791979 -12.8125 18 C-11.57435547 18.09539062 -10.33621094 18.19078125 -9.06054688 18.2890625 C-6.04007361 18.52230368 -3.01999321 18.76062333 0 19 C0 12.73 0 6.46 0 0 Z " fill="#C6C6FF" transform="translate(164,113)"/>
<path d="M0 0 C3.16115776 1.36983503 3.9927092 1.9890638 6 5 C6.4775733 9.85532856 6.51341394 12.04398784 4.1875 16.375 C0.59500978 20.68598827 -2.09687483 21.34222824 -7.5 22 C-8.14420898 22.07903564 -8.78841797 22.15807129 -9.45214844 22.23950195 C-11.6337453 22.50252221 -13.81672522 22.75131338 -16 23 C-16.82951172 23.09845215 -17.65902344 23.1969043 -18.51367188 23.29833984 C-21.09153882 23.60335834 -23.67041796 23.89737103 -26.25 24.1875 C-27.48266602 24.33155273 -27.48266602 24.33155273 -28.74023438 24.47851562 C-32.19117962 24.85042201 -34.66751999 25.11082667 -38 24 C-38.556875 24.78375 -39.11375 25.5675 -39.6875 26.375 C-45.79585385 32.38126437 -57.08477454 31.17021543 -65.125 31.25 C-65.85944336 31.25942627 -66.59388672 31.26885254 -67.35058594 31.27856445 C-71.1065602 31.25536321 -72.79867448 31.13421701 -76 29 C-76.20544434 29.79237061 -76.41088867 30.58474121 -76.62255859 31.40112305 C-78 34 -78 34 -80.67041016 35.02661133 C-82.33789307 35.30154419 -82.33789307 35.30154419 -84.0390625 35.58203125 C-85.87017578 35.89624023 -85.87017578 35.89624023 -87.73828125 36.21679688 C-89.02089844 36.41337891 -90.30351563 36.60996094 -91.625 36.8125 C-93.51412109 37.13637695 -93.51412109 37.13637695 -95.44140625 37.46679688 C-101.69276572 38.4999439 -107.66443812 39.2792754 -114 39 C-113.96744792 36.98177083 -113.93489583 34.96354167 -113.90234375 32.9453125 C-113.87350758 30.91814596 -113.87350758 30.91814596 -115 29 C-115.33 29 -115.66 29 -116 29 C-115.67 29.66 -115.34 30.32 -115 31 C-114.960008 32.99960012 -114.95653201 35.00047242 -115 37 C-116.875 36.6875 -116.875 36.6875 -119 36 C-121.70238949 31.94641576 -121.22937614 29.81689896 -121 25 C-120.67 24.34 -120.34 23.68 -120 23 C-117.96875 22.33203125 -117.96875 22.33203125 -115.5 21.8125 C-114.27796875 21.54373047 -114.27796875 21.54373047 -113.03125 21.26953125 C-112.3609375 21.18058594 -111.690625 21.09164062 -111 21 C-110.67 21.33 -110.34 21.66 -110 22 C-107.33643816 21.63862787 -104.70874367 21.21433784 -102.0625 20.75 C-92.64952271 19.16982656 -83.20959662 18.04044135 -73.72290039 17.00292969 C-72.66192139 16.88594727 -71.60094238 16.76896484 -70.5078125 16.6484375 C-69.56566895 16.54708496 -68.62352539 16.44573242 -67.65283203 16.34130859 C-65.06870217 16.0088391 -62.54742702 15.54295104 -60 15 C-60 14.34 -60 13.68 -60 13 C-56.88358591 12.07957072 -54.11813451 11.89393551 -50.875 11.9375 C-49.57175781 11.95103516 -49.57175781 11.95103516 -48.2421875 11.96484375 C-47.13230469 11.98224609 -47.13230469 11.98224609 -46 12 C-43.67642489 12.18490007 -43.67642489 12.18490007 -41 10 C-38.87890625 9.76953125 -38.87890625 9.76953125 -36.5625 9.8125 C-35.41974609 9.82216797 -35.41974609 9.82216797 -34.25390625 9.83203125 C-32.05453434 9.99593592 -30.13214412 10.46162293 -28 11 C-25.66699067 11.03888349 -23.33290199 11.0448635 -21 11 C-21 10.01 -21 9.02 -21 8 C-20.03578125 8.02320313 -19.0715625 8.04640625 -18.078125 8.0703125 C-16.81484375 8.08835938 -15.5515625 8.10640625 -14.25 8.125 C-12.99703125 8.14820313 -11.7440625 8.17140625 -10.453125 8.1953125 C-7.26039184 8.01472805 -5.58968064 7.79769093 -3 6 C-2.67 5.34 -2.34 4.68 -2 4 C-2.66 4 -3.32 4 -4 4 C-3.67 3.01 -3.34 2.02 -3 1 C-2.505 1.99 -2.505 1.99 -2 3 C-1.34 3 -0.68 3 0 3 C0 2.01 0 1.02 0 0 Z " fill="#4F50F8" transform="translate(781,176)"/>
<path d="M0 0 C0.78503906 -0.020625 1.57007813 -0.04125 2.37890625 -0.0625 C7.04402018 -0.09396788 10.10181121 0.20297207 13.875 3.25 C15.875 6.25 15.875 6.25 15.80078125 9.5625 C14.70568273 13.92441141 13.0699932 15.93867513 10.0625 19.25 C2.32817853 28.03744747 -0.57734609 34.55859331 -0.125 46.25 C0.15422864 50.25548664 0.49624399 54.2527714 0.875 58.25 C-2.13990557 59.25496852 -4.16681692 59.35335303 -7.3125 59.3125 C-8.21355469 59.30347656 -9.11460937 59.29445312 -10.04296875 59.28515625 C-10.73003906 59.27355469 -11.41710937 59.26195312 -12.125 59.25 C-17.15734704 52.9595662 -16.94825804 45.90035898 -16.38330078 38.18896484 C-15.88595968 34.45561605 -14.41904566 31.15929595 -12.96875 27.71484375 C-11.59885196 23.71296569 -11.75680641 20.2338578 -13.125 16.25 C-16.50945864 11.63482912 -21.01124848 9.52136854 -26.125 7.25 C-19.57246556 -0.31061666 -9.33589199 0.06192963 0 0 Z " fill="#FBFBFB" transform="translate(732.125,66.75)"/>
<path d="M0 0 C6.60249437 2.74471509 9.75425988 8.21555101 12.8515625 14.41015625 C13.48950025 22.37914914 13.88902218 29.83163161 8.8515625 36.41015625 C5.33387678 40.3298632 2.06684109 41.1104106 -3.015625 41.4375 C-8.1878932 41.37118887 -11.77973518 38.65582821 -15.5 35.29296875 C-20.70496495 29.34796139 -21.87834775 21.93676967 -21.6015625 14.24609375 C-20.69075933 8.54572221 -17.6553557 5.0845098 -13.8984375 0.91015625 C-9.28628956 -1.60556081 -5.00215678 -1.37331941 0 0 Z " fill="#F6F6FD" transform="translate(693.1484375,119.58984375)"/>
<path d="M0 0 C5.922515 2.9612575 9.42324558 7.07445265 11.8125 13.1875 C13.81186444 19.80078238 13.12154116 26.03346682 10.3125 32.3125 C7.68155349 37.05588531 4.21416937 40.26194354 -1 42 C-7.12455118 42.50201239 -10.12517646 42.09928344 -15 38 C-21.2208348 31.2607623 -21.53463734 24.5874529 -21.30859375 15.83203125 C-20.79544109 9.45984439 -18.70746814 6.22093594 -13.875 2.0625 C-9.48266002 -0.79015951 -5.0665854 -0.9044483 0 0 Z " fill="#F6F6FD" transform="translate(762,106)"/>
<path d="M0 0 C0.33 1.19625 0.66 2.3925 1 3.625 C2.64310631 8.10404461 5.09316843 9.99211884 9.0625 12.48046875 C11.69260152 14.5431895 12.69750775 15.86839055 14 19 C14.38456376 22.840717 14.32701862 26.6442551 14.25 30.5 C14.24484375 31.53253906 14.2396875 32.56507812 14.234375 33.62890625 C14.18683233 38.23460248 14.01405466 42.49263881 13 47 C9.55463828 46.74478802 8.81024183 45.78710059 6.4375 43.125 C5.633125 42.09375 4.82875 41.0625 4 40 C3.49339844 39.53078125 2.98679687 39.0615625 2.46484375 38.578125 C0.72928302 36.70834758 0.04034509 34.99841692 -0.875 32.625 C-4.00211771 25.40229156 -8.89308291 22.2566981 -15.59765625 18.52734375 C-18.14033378 16.91077966 -20.04953628 15.29571821 -22 13 C-22.125 10.0625 -22.125 10.0625 -21 7 C-14.75103589 0.60571114 -8.68466029 -0.34738641 0 0 Z " fill="#FBFBFB" transform="translate(695,81)"/>
<path d="M0 0 C3.25666272 0.56149357 4.95623323 1.37229986 7 4 C7.99407808 7.08541744 8.12151796 9.90674355 8.11352539 13.13574219 C8.11344986 14.15649841 8.11337433 15.17725464 8.11329651 16.22894287 C8.10813522 17.32386047 8.10297394 18.41877808 8.09765625 19.546875 C8.0962413 20.6732135 8.09482635 21.799552 8.09336853 22.96002197 C8.08777199 26.55670835 8.0752201 30.15333244 8.0625 33.75 C8.05748455 36.18880118 8.05292172 38.62760334 8.04882812 41.06640625 C8.0378037 47.04429208 8.02106898 53.02214159 8 59 C9.2478125 58.68289062 10.495625 58.36578125 11.78125 58.0390625 C18.25682531 56.3934101 24.35434143 55.9588079 31 56 C31.11069824 55.40050537 31.22139648 54.80101074 31.33544922 54.18334961 C31.84515364 51.43407506 32.36003722 48.68579426 32.875 45.9375 C33.04902344 44.99455078 33.22304688 44.05160156 33.40234375 43.08007812 C34.36604436 37.95818785 35.46607967 32.9817863 37 28 C35.35 28 33.7 28 32 28 C32.556875 27.608125 33.11375 27.21625 33.6875 26.8125 C38.06509635 23.38141097 41.6113258 19.39272582 45 15 C44.43536917 23.32514455 43.12022046 31.38270129 41.5 39.5625 C41.27441406 40.73619141 41.04882812 41.90988281 40.81640625 43.11914062 C39.13822286 51.72355428 39.13822286 51.72355428 38 54 C38.71542969 53.90912109 39.43085937 53.81824219 40.16796875 53.72460938 C43.44469265 53.31130979 46.72231448 52.90559988 50 52.5 C51.12535156 52.35691406 52.25070312 52.21382812 53.41015625 52.06640625 C59.323297 51.34023107 65.04263601 50.82478341 71 51 C70.505 51.99 70.505 51.99 70 53 C67.27734375 53.4140625 67.27734375 53.4140625 63.9375 53.625 C62.83277344 53.69976562 61.72804688 53.77453125 60.58984375 53.8515625 C59.73519531 53.90054688 58.88054688 53.94953125 58 54 C58 54.66 58 55.32 58 56 C54.45326078 57.56851831 51.34439372 58.35309888 47.4921875 58.74609375 C46.4314502 58.85985352 45.37071289 58.97361328 44.27783203 59.09082031 C42.59343018 59.26242676 42.59343018 59.26242676 40.875 59.4375 C31.78948124 60.41044944 22.78112098 61.54327378 13.78857422 63.17358398 C10.20763903 63.79365759 7.4708911 64.14627581 4 63 C0.85078091 63.23283149 0.85078091 63.23283149 -2 64 C-2.495 64.99 -2.495 64.99 -3 66 C-2.67 64.35 -2.34 62.7 -2 61 C0.475 60.505 0.475 60.505 3 60 C2.99476318 59.0212793 2.98952637 58.04255859 2.98413086 57.03417969 C2.96600439 53.39633095 2.95454003 49.75848619 2.94506836 46.12060547 C2.94004563 44.54735645 2.93322625 42.97411208 2.92456055 41.40087891 C2.91240471 39.13703257 2.90675104 36.87324807 2.90234375 34.609375 C2.89718246 33.90818542 2.89202118 33.20699585 2.88670349 32.48455811 C2.88632498 29.17514249 2.97485273 26.16412237 4 23 C4.66 23 5.32 23 6 23 C6 22.01 6 21.02 6 20 C5.34 20 4.68 20 4 20 C3.67 15.05 3.34 10.1 3 5 C2.01 4.67 1.02 4.34 0 4 C0 2.68 0 1.36 0 0 Z " fill="#080817" transform="translate(663,135)"/>
<path d="M0 0 C9.37385343 -0.1320261 18.65200414 0.38629804 28 1 C24.76060884 2.9370237 22.5397479 3.19417139 18.796875 2.9765625 C17.8171875 2.925 16.8375 2.8734375 15.828125 2.8203125 C14.30445313 2.72363281 14.30445313 2.72363281 12.75 2.625 C11.203125 2.53992188 11.203125 2.53992188 9.625 2.453125 C7.08276954 2.31188997 4.54129092 2.15723706 2 2 C2 6.95 2 11.9 2 17 C5.43817139 16.9836853 5.43817139 16.9836853 8.94580078 16.96704102 C31.45934063 16.88454428 53.93740039 17.22517759 76.44104004 17.86883545 C79.71812303 17.96128538 82.9953369 18.04850175 86.27256393 18.13567162 C104.18854972 18.61311147 122.09594797 19.17671057 140 20 C140 20.33 140 20.66 140 21 C105.20616436 21.22998671 70.46584829 20.62537669 35.68591309 19.66760254 C30.42610683 19.52488113 25.16610424 19.39026749 19.90608692 19.25558567 C14.80605677 19.12419082 9.70614798 18.9885103 4.60626793 18.85142326 C2.19055962 18.78686931 -0.22518022 18.7234839 -2.64095116 18.66131783 C-5.97325083 18.57479384 -9.30534775 18.48265691 -12.63745117 18.38891602 C-13.61939957 18.36445908 -14.60134796 18.34000214 -15.61305237 18.31480408 C-16.51818573 18.28818695 -17.42331909 18.26156982 -18.35588074 18.23414612 C-19.52752667 18.20234426 -19.52752667 18.20234426 -20.72284222 18.16989994 C-23 18 -23 18 -28 17 C-28 70.46 -28 123.92 -28 179 C-28.66 179 -29.32 179 -30 179 C-30 125.21 -30 71.42 -30 16 C-20.1 16 -10.2 16 0 16 C0 10.72 0 5.44 0 0 Z " fill="#D6D6FF" transform="translate(126,130)"/>
<path d="M0 0 C-0.33 2.97 -0.66 5.94 -1 9 C2.34252724 9.07427838 4.8035914 9.06546953 8 8 C9.58299585 12.74898755 9.55207896 16.56459472 7.75 21.25 C5.94257122 24.09024522 5.01637402 25.5325748 2 27 C-3.0487567 27.65145248 -4.95950148 27.64785757 -9.3125 24.9375 C-12.76154289 21.16761591 -14.82862212 17.97574314 -15.12890625 12.76171875 C-14.91294382 8.86785065 -14.20878521 5.68932267 -12 2.4375 C-7.77600673 -0.99449453 -5.32851262 -0.47718023 0 0 Z " fill="#6566F9" transform="translate(691,128)"/>
<path d="M0 0 C-0.29296875 2.05078125 -0.5859375 4.1015625 -0.87890625 6.15234375 C-0.91886719 6.76207031 -0.95882812 7.37179688 -1 8 C0.06645115 9.29633621 0.06645115 9.29633621 2.5625 9.0625 C3.366875 9.041875 4.17125 9.02125 5 9 C5.33 8.34 5.66 7.68 6 7 C6.66 7 7.32 7 8 7 C10.24633991 11.49267983 9.71724793 17.14975784 9 22 C7.16539985 24.97459735 5.15585601 26.54001813 2 28 C-2.01880041 28.82016335 -3.5620693 28.23184566 -7.1875 26.3125 C-10.99522583 23.18170321 -13.27718716 19.91512728 -14 15 C-14.52903786 9.28639115 -13.62567888 6.45440548 -10 2 C-6.3558226 -0.4294516 -4.28758728 -0.16179575 0 0 Z " fill="#6869F9" transform="translate(758,115)"/>
<path d="M0 0 C0 0.33 0 0.66 0 1 C-38.38285876 2.21316923 -76.7660766 3.4144386 -115.14973354 4.60207939 C-122.08096036 4.81655641 -129.01217664 5.03135611 -135.94335938 5.24725342 C-149.0579817 5.65569896 -162.17268529 6.06093031 -175.28774929 6.45497227 C-180.63716894 6.6157279 -185.98651787 6.778226 -191.33572388 6.94595337 C-217.56587923 7.76663719 -243.75675831 8.18258708 -270 8 C-270 11.96 -270 15.92 -270 20 C-270.33 20 -270.66 20 -271 20 C-271 14.06 -271 8.12 -271 2 C-270.67 3.32 -270.34 4.64 -270 6 C-269.18917969 5.855625 -268.37835937 5.71125 -267.54296875 5.5625 C-258.50377986 4.04719942 -250.08073987 3.53597313 -240.96784973 4.50354004 C-234.68365078 5.08786093 -228.44732208 5.15427579 -222.1394043 5.13085938 C-220.89100863 5.12814781 -219.64261297 5.12543625 -218.35638714 5.12264252 C-202.67223332 5.04256746 -187.00084249 4.51094419 -171.32633042 3.99035454 C-166.93934022 3.84604685 -162.55214634 3.70822808 -158.16496277 3.56994629 C-144.25240752 3.13026248 -130.3401898 2.68023224 -116.42807281 2.22691059 C-104.60462136 1.84183641 -92.78098702 1.46302987 -80.95703125 1.09375 C-80.08248747 1.06636372 -79.2079437 1.03897743 -78.30689859 1.01076126 C-52.2018467 0.19591668 -26.12003163 -0.40776527 0 0 Z " fill="#C4C4FF" transform="translate(1050,155)"/>
<path d="M0 0 C0.33 1.65 0.66 3.3 1 5 C3.97 5.495 3.97 5.495 7 6 C7.48590022 13.1670282 7.48590022 13.1670282 5.25 17 C3 19 3 19 -1 19 C-1.33 18.34 -1.66 17.68 -2 17 C-2.804375 16.896875 -3.60875 16.79375 -4.4375 16.6875 C-7 16 -7 16 -8.3125 13.8125 C-9.09991658 10.59125036 -9.48109982 8.29897018 -9 5 C-5.94244711 1.09312687 -5.0698138 0 0 0 Z " fill="#030308" transform="translate(689,132)"/>
<path d="M0 0 C0.3403125 0.9590625 0.3403125 0.9590625 0.6875 1.9375 C1.84016601 4.27432836 1.84016601 4.27432836 4.5625 4.625 C5.7690625 4.810625 5.7690625 4.810625 7 5 C8.44430855 7.88861709 8.37688506 9.79647701 8 13 C5.8125 15.9375 5.8125 15.9375 3 18 C0.1875 17.8125 0.1875 17.8125 -2 17 C-2.33 16.01 -2.66 15.02 -3 14 C-4.32303717 13.6278958 -5.65737935 13.29369827 -7 13 C-8.22975728 10.54048544 -8.01468511 9.21743376 -7.75 6.5 C-7.68296875 5.7059375 -7.6159375 4.911875 -7.546875 4.09375 C-6.45398636 -0.09045222 -3.899121 0 0 0 Z " fill="#020207" transform="translate(756,120)"/>
<path d="M0 0 C0.33 1.32 0.66 2.64 1 4 C1.81082031 3.855625 2.62164063 3.71125 3.45703125 3.5625 C12.45015598 2.05492147 20.84138281 1.5187085 29.9074707 2.50561523 C36.88871985 3.15665443 43.85016639 3.12558554 50.85546875 3.09765625 C52.25222218 3.09578619 53.64897627 3.09436507 55.04573059 3.09336853 C58.68374512 3.0895896 62.32171835 3.07980005 65.9597168 3.06866455 C69.68733156 3.05834978 73.41495314 3.05384956 77.14257812 3.04882812 C84.42840404 3.03817259 91.71419619 3.02115331 99 3 C99 3.33 99 3.66 99 4 C89.97963653 4.34635612 80.95880133 4.67900367 71.9375 5 C71.27012691 5.0237545 70.60275383 5.047509 69.91515732 5.07198334 C46.93799139 5.88528443 23.99215974 6.27601632 1 6 C1 9.96 1 13.92 1 18 C0.67 18 0.34 18 0 18 C0 12.06 0 6.12 0 0 Z " fill="#C0C0FF" transform="translate(779,157)"/>
<path d="M0 0 C0 0.33 0 0.66 0 1 C3.63 1.33 7.26 1.66 11 2 C11 2.33 11 2.66 11 3 C7.6461222 3.1728187 4.291869 3.33701687 0.9375 3.5 C-0.44791992 3.57154297 -0.44791992 3.57154297 -1.86132812 3.64453125 C-14.85176976 4.26523495 -27.81744685 4.01467554 -40.80859375 3.5625 C-42.15478297 3.51744164 -43.50097965 3.47260576 -44.84718323 3.42797852 C-48.33394948 3.31181006 -51.8206083 3.19268842 -55.30725098 3.07287598 C-58.88771485 2.95038804 -62.46827549 2.83079748 -66.04882812 2.7109375 C-73.03264747 2.47673761 -80.01635725 2.23940674 -87 2 C-87 1.67 -87 1.34 -87 1 C-57.99761403 0.36670789 -29.01017946 -0.19280794 0 0 Z " fill="#D3D3FF" transform="translate(587,156)"/>
<path d="M0 0 C0 0.66 0 1.32 0 2 C0.5775 2.226875 1.155 2.45375 1.75 2.6875 C4.55730887 4.32509684 5.99107964 6.47264858 8 9 C8.99 9.33 9.98 9.66 11 10 C11.08767555 13.37483413 11.14061628 16.74937215 11.1875 20.125 C11.21263672 21.07632813 11.23777344 22.02765625 11.26367188 23.0078125 C11.32056144 28.46921074 11.04470749 32.2531332 8 37 C7.34 37 6.68 37 6 37 C6.33 36.13375 6.66 35.2675 7 34.375 C9.19365991 26.42298282 9.50900033 17.72846527 5.5 10.375 C2.39533158 5.95430117 -0.74768607 3.36808906 -6 2 C-10.92626886 1.13853023 -13.94103506 1.34832927 -18.25 4 C-21.52113215 7.1706225 -23.78517006 11.0505466 -26 15 C-27 12 -27 12 -26.21484375 10.1328125 C-19.19159691 -0.90678651 -12.78529852 -2.69164179 0 0 Z " fill="#6060FA" transform="translate(697,118)"/>
<path d="M0 0 C12.77419579 -0.68569242 25.36665038 1.33425852 38 3 C38 3.66 38 4.32 38 5 C41.63 5 45.26 5 49 5 C49 5.33 49 5.66 49 6 C39.84652501 6.0516551 30.7112811 5.91713777 21.5625 5.625 C20.35529297 5.5940625 19.14808594 5.563125 17.90429688 5.53125 C9.46520715 5.26033219 1.33093156 4.35725524 -7 3 C-7 2.67 -7 2.34 -7 2 C-2.05 2 2.9 2 8 2 C5.36 1.67 2.72 1.34 0 1 C0 0.67 0 0.34 0 0 Z " fill="#B0B0FE" transform="translate(612,156)"/>
<path d="M0 0 C-0.625 2.375 -0.625 2.375 -2 5 C-5.125 6.3125 -5.125 6.3125 -8 7 C-8.19491452 8.45736087 -8.38069358 9.91594593 -8.5625 11.375 C-8.66691406 12.18710938 -8.77132812 12.99921875 -8.87890625 13.8359375 C-9.18237328 16.04899186 -9.18237328 16.04899186 -8 18 C-7.01 18.66 -6.02 19.32 -5 20 C-5.99 20.33 -6.98 20.66 -8 21 C-8.66 21.66 -9.32 22.32 -10 23 C-13.95611254 18.183863 -14.53701046 14.22932128 -14 8 C-10.3240009 1.28179475 -7.57488955 -0.28584489 0 0 Z " fill="#5455F3" transform="translate(758,115)"/>
<path d="M0 0 C4.90713015 2.31973425 7.8111048 5.71776931 11 10 C11.495 11.485 11.495 11.485 12 13 C11.01 13 10.02 13 9 13 C8.401875 12.0925 7.80375 11.185 7.1875 10.25 C4.69591754 6.54822035 3.02021341 4.93565831 -1 3 C-6.02139998 2.21011686 -9.70805599 2.13870399 -14 5 C-14.66 5.66 -15.32 6.32 -16 7 C-16.66 7 -17.32 7 -18 7 C-18.4021875 8.1446875 -18.4021875 8.1446875 -18.8125 9.3125 C-19.94424112 11.87380884 -20.91223401 13.19692938 -23 15 C-23.6875 13.1875 -23.6875 13.1875 -24 11 C-22.875 9.5625 -22.875 9.5625 -21 8 C-20.195625 7.175 -19.39125 6.35 -18.5625 5.5 C-12.55106586 -0.36481379 -8.36207907 -0.99895978 0 0 Z " fill="#6465FE" transform="translate(763,104)"/>
<path d="M0 0 C0.66 0 1.32 0 2 0 C3.58299585 4.74898755 3.55207896 8.56459472 1.75 13.25 C-0.03706224 16.05824066 -1.03473811 17.51736906 -4 19 C-7.75 19.1875 -7.75 19.1875 -11 19 C-10.67 17.02 -10.34 15.04 -10 13 C-9.67 13.66 -9.34 14.32 -9 15 C-5.34683329 13.75023244 -4.21934164 13.32901247 -2 10 C-1.58256635 7.75354124 -1.58256635 7.75354124 -1.4375 5.375 C-1.09841828 1.09841828 -1.09841828 1.09841828 0 0 Z " fill="#5354F5" transform="translate(697,136)"/>
<path d="M0 0 C4.01843305 0.24900547 7.79203837 0.52860034 11.5625 2 C13.94949047 5.32103021 13.29826842 9.0479434 13 13 C7.79064738 10.57891321 3.16609728 7.33219457 0.5625 2.125 C0.376875 1.42375 0.19125 0.7225 0 0 Z " fill="#EEEEEE" transform="translate(701,81)"/>
<path d="M0 0 C0.66 0.33 1.32 0.66 2 1 C2.20729458 3.34835148 2.31463108 5.70579016 2.375 8.0625 C2.7258461 15.72053002 3.85880801 21.01586761 9.5 26.375 C11.62588355 27.75682431 13.68499158 28.97110737 16 30 C16 30.66 16 31.32 16 32 C10.13623442 31.04265052 7.23291302 28.96415933 3.51171875 24.33984375 C-0.63643724 17.9193129 -1.80132364 10.53552421 -1 3 C-0.67 2.01 -0.34 1.02 0 0 Z " fill="#5858E5" transform="translate(739,118)"/>
<path d="M0 0 C8.07094823 -0.10466648 15.9874678 -0.03387512 24 1 C24 1.33 24 1.66 24 2 C29.28 2.66 34.56 3.32 40 4 C40 4.33 40 4.66 40 5 C30.26055028 5.12276617 20.70943816 4.83779436 11 4 C11 3.67 11 3.34 11 3 C7.37 2.34 3.74 1.68 0 1 C0 0.67 0 0.34 0 0 Z " fill="#DDDDFF" transform="translate(590,154)"/>
<path d="M0 0 C2.15486947 0.37152922 3.77216038 0.85540947 5.625 2.03125 C7.80772369 5.15651347 7.31228424 8.52396278 7.1875 12.1875 C7.17396484 12.93708984 7.16042969 13.68667969 7.14648438 14.45898438 C7.11118539 16.30629767 7.05737917 18.15324066 7 20 C6.01 20 5.02 20 4 20 C3.67 15.05 3.34 10.1 3 5 C2.01 4.67 1.02 4.34 0 4 C0 2.68 0 1.36 0 0 Z " fill="#040408" transform="translate(663,135)"/>
<path d="M0 0 C-0.66 0 -1.32 0 -2 0 C-2 0.66 -2 1.32 -2 2 C-3.98 2.99 -3.98 2.99 -6 4 C-5.67 4.66 -5.34 5.32 -5 6 C-5.99 6 -6.98 6 -8 6 C-7.01 6.33 -6.02 6.66 -5 7 C-3.64560332 9.70879335 -3.93498549 12.00933268 -4 15 C-5.875 14.6875 -5.875 14.6875 -8 14 C-10.70238949 9.94641576 -10.22937614 7.81689896 -10 3 C-9 1 -9 1 -6.125 -0.1875 C-3 -1 -3 -1 0 0 Z " fill="#5657CD" transform="translate(670,198)"/>
<path d="M0 0 C1.85625 0.0309375 1.85625 0.0309375 3.75 0.0625 C3.75 0.3925 3.75 0.7225 3.75 1.0625 C9.195 1.5575 9.195 1.5575 14.75 2.0625 C14.75 2.3925 14.75 2.7225 14.75 3.0625 C2.40822514 3.69844729 -9.88991137 4.23577227 -22.25 4.0625 C-22.25 3.7325 -22.25 3.4025 -22.25 3.0625 C-21.28578125 2.92972656 -20.3215625 2.79695312 -19.328125 2.66015625 C-17.43320312 2.39525391 -17.43320312 2.39525391 -15.5 2.125 C-14.24703125 1.95097656 -12.9940625 1.77695313 -11.703125 1.59765625 C-8.44203871 1.14988726 -8.44203871 1.14988726 -6.0625 0.5 C-3.98619381 -0.00117736 -2.13249245 -0.03554154 0 0 Z " fill="#E0E0FF" transform="translate(583.25,155.9375)"/>
<path d="M0 0 C1.74097738 3.48195475 1.22706266 7.4137299 1.25 11.25 C1.270625 12.09691406 1.29125 12.94382813 1.3125 13.81640625 C1.34473553 18.9982676 0.81174714 22.47160723 -2 27 C-2.66 27 -3.32 27 -4 27 C-3.67 26.13375 -3.34 25.2675 -3 24.375 C-0.88412008 17.05195461 -1.26206418 8.36884788 -3 1 C-2.01 0.67 -1.02 0.34 0 0 Z " fill="#6666F6" transform="translate(707,128)"/>
<path d="M0 0 C0.33 1.32 0.66 2.64 1 4 C2.21236328 3.85691406 2.21236328 3.85691406 3.44921875 3.7109375 C4.51785156 3.60007813 5.58648438 3.48921875 6.6875 3.375 C8.27111328 3.20097656 8.27111328 3.20097656 9.88671875 3.0234375 C13.13716346 2.9989674 15.10230796 3.59147437 18 5 C18 5.33 18 5.66 18 6 C12.39 6 6.78 6 1 6 C1 9.96 1 13.92 1 18 C0.67 18 0.34 18 0 18 C0 12.06 0 6.12 0 0 Z " fill="#A6A6FE" transform="translate(779,157)"/>
<path d="M0 0 C1.65 0 3.3 0 5 0 C4.67257812 0.56203125 4.34515625 1.1240625 4.0078125 1.703125 C2.88214506 4.26859964 2.7931889 5.96842277 2.875 8.75 C2.89304687 9.54921875 2.91109375 10.3484375 2.9296875 11.171875 C2.95289063 11.77515625 2.97609375 12.3784375 3 13 C1.68 13 0.36 13 -1 13 C-2.5121867 9.97562661 -2.17263369 7.33758466 -2 4 C-1 1.5625 -1 1.5625 0 0 Z " fill="#575758" transform="translate(668,84)"/>
<path d="M0 0 C7.66099906 -0.24363601 15.13387984 0.07402308 22.75 0.875 C23.54841309 0.95347168 24.34682617 1.03194336 25.16943359 1.11279297 C27.12290765 1.33342162 29.06414803 1.65763317 31 2 C31.33 2.66 31.66 3.32 32 4 C29.85423363 4.02685938 27.70837355 4.04633088 25.5625 4.0625 C24.36753906 4.07410156 23.17257812 4.08570313 21.94140625 4.09765625 C19 4 19 4 18 3 C16.66197814 2.77486899 15.31426977 2.60639193 13.96484375 2.46484375 C13.15595703 2.37783203 12.34707031 2.29082031 11.51367188 2.20117188 C10.66353516 2.11416016 9.81339844 2.02714844 8.9375 1.9375 C8.08349609 1.84662109 7.22949219 1.75574219 6.34960938 1.66210938 C4.23348465 1.43749278 2.11679106 1.21824773 0 1 C0 0.67 0 0.34 0 0 Z " fill="#C6C6FF" transform="translate(612,156)"/>
<path d="M0 0 C-0.33 0.66 -0.66 1.32 -1 2 C-1.99 2.33 -2.98 2.66 -4 3 C-2.68 3.66 -1.36 4.32 0 5 C-6.435 5.495 -6.435 5.495 -13 6 C-12.34 5.01 -11.68 4.02 -11 3 C-11.99 2.34 -12.98 1.68 -14 1 C-9.27616037 0.34843591 -4.78025483 -0.11950637 0 0 Z " fill="#0E0E2B" transform="translate(744,184)"/>
<path d="M0 0 C0.99 0 1.98 0 3 0 C2.6875 1.875 2.6875 1.875 2 4 C-1.46923881 6.31282587 -2.92205575 6.42478586 -7 6 C-8.875 4.625 -8.875 4.625 -10 3 C-10 2.34 -10 1.68 -10 1 C-7.98177083 1.32552083 -5.96354167 1.65104167 -3.9453125 1.9765625 C-2.98238281 1.98816406 -2.98238281 1.98816406 -2 2 C-1.34 1.34 -0.68 0.68 0 0 Z " fill="#E9E9FE" transform="translate(729,157)"/>
<path d="M0 0 C0.99 0.33 1.98 0.66 3 1 C1.37660195 2.70884005 -0.29319053 4.37446717 -2 6 C-2.66 6 -3.32 6 -4 6 C-4.4021875 7.1446875 -4.4021875 7.1446875 -4.8125 8.3125 C-5.94424112 10.87380884 -6.91223401 12.19692938 -9 14 C-9.6875 12.1875 -9.6875 12.1875 -10 10 C-8.875 8.5625 -8.875 8.5625 -7 7 C-6.154375 6.154375 -5.30875 5.30875 -4.4375 4.4375 C-2.95833333 2.95833333 -1.47916667 1.47916667 0 0 Z " fill="#696AF6" transform="translate(749,105)"/>
<path d="M0 0 C0.33 0.66 0.66 1.32 1 2 C1.598125 2.268125 2.19625 2.53625 2.8125 2.8125 C5.662573 4.35968249 7.06931329 6.42575106 9 9 C9.66 9.66 10.32 10.32 11 11 C9.68 11.33 8.36 11.66 7 12 C6.443125 11.0925 5.88625 10.185 5.3125 9.25 C3.1106201 6.15546609 1.05610275 4.20718532 -2 2 C-1.34 2 -0.68 2 0 2 C0 1.34 0 0.68 0 0 Z " fill="#6F6FF8" transform="translate(696,118)"/>
<path d="M0 0 C1.04449911 3.13349732 0.93423645 3.98968256 0 7 C-0.598125 6.67 -1.19625 6.34 -1.8125 6 C-4.05386471 4.79212012 -4.05386471 4.79212012 -7 5 C-7.99 5.495 -7.99 5.495 -9 6 C-9 4.68 -9 3.36 -9 2 C-6.94921875 1.77213542 -4.8984375 1.54427083 -2.84765625 1.31640625 C-0.98859771 1.18113386 -0.98859771 1.18113386 0 0 Z " fill="#4E4FE1" transform="translate(671,132)"/>
<path d="M0 0 C0.33 0 0.66 0 1 0 C1 4.29 1 8.58 1 13 C1.66 13 2.32 13 3 13 C3 13.99 3 14.98 3 16 C2.34 16 1.68 16 1 16 C0.67 17.32 0.34 18.64 0 20 C0 13.4 0 6.8 0 0 Z " fill="#4849A6" transform="translate(666,142)"/>
<path d="M0 0 C1.32 0 2.64 0 4 0 C4 0.66 4 1.32 4 2 C4.99 2.33 5.98 2.66 7 3 C7 3.66 7 4.32 7 5 C4.03 4.505 4.03 4.505 1 4 C0.67 2.68 0.34 1.36 0 0 Z " fill="#3434A4" transform="translate(743,196)"/>
<path d="M0 0 C1.4783226 2.95664519 1.06032783 5.74229737 1 9 C0.34 9 -0.32 9 -1 9 C-2.25664978 6.09399739 -3 4.20395416 -3 1 C-2.01 0.67 -1.02 0.34 0 0 Z " fill="#4D4EE5" transform="translate(707,128)"/>
<path d="M0 0 C3.68754757 0.49831724 5.60490662 1.10067643 8 4 C6.02 4 4.04 4 2 4 C1.34 2.68 0.68 1.36 0 0 Z " fill="#1E1F9A" transform="translate(706,203)"/>
<path d="M0 0 C3.63 0.33 7.26 0.66 11 1 C11 1.33 11 1.66 11 2 C4.565 2.495 4.565 2.495 -2 3 C-1.34 2.01 -0.68 1.02 0 0 Z " fill="#45455F" transform="translate(733,187)"/>
</svg>
