<svg width="52" height="53" viewBox="0 0 52 53" fill="none" xmlns="http://www.w3.org/2000/svg">
<path d="M19.5 28.4668L32.5 28.4668" stroke="white" stroke-width="3.52862" stroke-linecap="round"/>
<path d="M19.5 19.7998L28.1667 19.7998" stroke="white" stroke-width="3.52862" stroke-linecap="round"/>
<path d="M19.5 37.1328L28.1667 37.1328" stroke="white" stroke-width="3.52862" stroke-linecap="round"/>
<path d="M41.1668 28.4674V35.2149C41.1668 40.2051 41.1668 42.7003 39.6166 44.2505C38.0663 45.8008 35.5712 45.8008 30.581 45.8008H21.4194C16.4291 45.8008 13.934 45.8008 12.3838 44.2505C10.8335 42.7003 10.8335 40.2051 10.8335 35.2149V17.3866C10.8335 12.3964 10.8335 9.9013 12.3838 8.35104C13.934 6.80078 16.4291 6.80078 21.4193 6.80078H23.8335" stroke="white" stroke-width="3.52862"/>
<path d="M39 6.80078L39 19.8008" stroke="white" stroke-width="3.52862" stroke-linecap="round"/>
<path d="M45.5 13.2998L32.5 13.2998" stroke="white" stroke-width="3.52862" stroke-linecap="round"/>
</svg>
