<svg width="52" height="59" viewBox="0 0 52 59" fill="none" xmlns="http://www.w3.org/2000/svg">
<path d="M18.7916 46.5004L18.7916 46.5004C18.7939 46.4998 18.7962 46.4991 18.7985 46.4985C18.8415 46.4865 18.8858 46.4743 18.931 46.4618C19.4559 46.3173 20.1206 46.1342 20.719 45.7624L20.719 45.7624C21.3174 45.3907 21.776 44.8759 22.1381 44.4693C22.171 44.4324 22.2032 44.3964 22.2345 44.3614L37.9088 26.8785C37.9359 26.8483 37.9629 26.8182 37.9899 26.788C38.6058 26.1014 39.211 25.4266 39.6433 24.7992C40.1335 24.0877 40.5837 23.1875 40.5837 22.0498C40.5837 20.9098 40.1307 20.0079 39.64 19.2965C39.2063 18.6677 38.5989 17.9905 37.9796 17.3C37.9525 17.2698 37.9255 17.2397 37.8984 17.2095C37.8671 17.1745 37.8357 17.1396 37.8045 17.1047C37.044 16.2562 36.3154 15.4432 35.63 14.8638C34.8651 14.2173 33.8467 13.5895 32.4997 13.5895C31.1554 13.5895 30.1388 14.2134 29.3738 14.8592C28.6898 15.4367 27.964 16.2465 27.2078 17.0902C27.1766 17.1251 27.1452 17.1601 27.1138 17.1951L12.0443 34.0035C12.0162 34.0348 11.9873 34.0669 11.9576 34.0997C11.6309 34.4621 11.2175 34.9205 10.928 35.4826C10.6384 36.0446 10.5051 36.6473 10.3998 37.1237C10.3902 37.1669 10.3809 37.2091 10.3717 37.2501L8.92092 43.723C8.91481 43.7502 8.90844 43.7785 8.90186 43.8076C8.82154 44.1639 8.71041 44.6567 8.67862 45.0912C8.64208 45.5907 8.65238 46.6828 9.56588 47.5505C10.4794 48.4182 11.5707 48.3723 12.0675 48.3101C12.4998 48.2561 12.9864 48.1197 13.338 48.0212C13.3668 48.0131 13.3947 48.0053 13.4215 47.9978L18.7916 46.5004Z" stroke="white" stroke-width="4.82232"/>
<path d="M27.083 18.4251L33.583 13.5918L40.083 20.8418L35.7497 28.0918L27.083 18.4251Z" fill="white"/>
</svg>
