<svg width="54" height="42" viewBox="0 0 54 42" fill="none" xmlns="http://www.w3.org/2000/svg">
<g clip-path="url(#clip0_817_1310)">
<path d="M50.114 14.5344C51.2526 14.2302 52.4046 14.8948 52.6968 15.9992C53.0058 17.12 52.3341 18.2542 51.2089 18.5451C50.0703 18.8493 48.9183 18.1847 48.6227 17.0804C48.3272 15.9727 49.0023 14.8386 50.114 14.5344Z" fill="#535D79"/>
<path d="M44.0172 18.297C43.809 17.5497 44.2725 16.776 45.0282 16.5677C45.7872 16.3594 46.5765 16.8157 46.7848 17.563C46.9964 18.3102 46.5329 19.0839 45.7738 19.2922C45.0013 19.484 44.2154 19.0409 44.0172 18.297Z" fill="#535D79"/>
<path d="M40.2625 19.2784C40.108 18.7229 40.4472 18.1575 41.0081 18.0054C41.569 17.8533 42.1467 18.184 42.3012 18.7361C42.4557 19.2916 42.1198 19.857 41.5556 20.0091C40.9947 20.1612 40.417 19.8306 40.2625 19.2784Z" fill="#535D79"/>
<path d="M37.47 20.0212C37.3861 19.6773 37.5977 19.3169 37.947 19.221C38.2996 19.1384 38.6792 19.3434 38.7631 19.6905C38.8471 20.0377 38.6355 20.3948 38.2862 20.494C37.9201 20.5767 37.554 20.3684 37.47 20.0212Z" fill="#535D79"/>
<path d="M47.7636 10.3048C48.6772 9.77909 49.8426 10.0965 50.3767 10.9959C50.9107 11.8919 50.5883 13.0426 49.6747 13.565C48.7611 14.0907 47.5957 13.7733 47.0616 12.8739C46.5276 11.9779 46.8501 10.8272 47.7636 10.3048Z" fill="#535D79"/>
<path d="M43.325 13.4686C43.9733 13.1082 44.7861 13.3165 45.1522 13.9546C45.5183 14.5895 45.3067 15.3896 44.6618 15.75C44.0136 16.1105 43.2008 15.9021 42.8347 15.2673C42.4686 14.6292 42.6936 13.829 43.325 13.4686Z" fill="#535D79"/>
<path d="M41.1349 16.2371C41.4002 16.6933 41.2457 17.2587 40.7822 17.52C40.3187 17.7845 39.7444 17.6324 39.4757 17.1761C39.2104 16.7198 39.3649 16.1511 39.8284 15.8899C40.2919 15.6419 40.8796 15.794 41.1349 16.2371Z" fill="#535D79"/>
<path d="M37.9883 18.0325C38.1562 18.3235 38.042 18.6971 37.7498 18.8625C37.4543 19.0278 37.0747 18.9187 36.9068 18.6277C36.7355 18.3367 36.8497 17.9631 37.1453 17.7978C37.4408 17.6325 37.8204 17.7416 37.9883 18.0325Z" fill="#535D79"/>
<path d="M44.4267 9.18439C43.7516 8.5198 43.7516 7.45512 44.4267 6.79052C45.0985 6.12923 46.18 6.12923 46.8551 6.79052C47.5302 7.45512 47.5302 8.5198 46.8551 9.18439C46.18 9.84899 45.085 9.84899 44.4267 9.18439Z" fill="#535D79"/>
<path d="M42.6567 12.639C42.1764 13.125 41.3904 13.125 40.9001 12.639C40.4064 12.1695 40.4064 11.3957 40.9001 10.913C41.377 10.4269 42.1629 10.4269 42.6567 10.913C43.147 11.3825 43.147 12.1562 42.6567 12.639Z" fill="#535D79"/>
<path d="M39.3792 14.1459C39.7151 14.4634 39.7151 15.0023 39.3792 15.3363C39.04 15.6669 38.4926 15.6669 38.1567 15.3363C37.8208 15.0023 37.8208 14.4634 38.1567 14.1327C38.4926 13.8021 39.04 13.8021 39.3792 14.1459Z" fill="#535D79"/>
<path d="M36.0345 16.6223C36.2595 16.4008 36.6256 16.4008 36.8507 16.6223C37.0757 16.8439 37.0757 17.201 36.8507 17.4225C36.6256 17.644 36.2595 17.644 36.0345 17.4225C35.8095 17.201 35.8095 16.8439 36.0345 16.6223Z" fill="#535D79"/>
<path d="M40.7989 6.33437C40.013 5.89461 39.7477 4.9126 40.2112 4.15211C40.6612 3.39163 41.6588 3.12711 42.4313 3.57018C43.2038 4.01324 43.4691 4.99526 43.019 5.75574C42.569 6.51622 41.5714 6.77743 40.7989 6.33437Z" fill="#535D79"/>
<path d="M39.4634 8.61541C40.0109 8.93613 40.2091 9.62718 39.8833 10.1661C39.5608 10.7051 38.8589 10.8969 38.3114 10.5794C37.7639 10.262 37.5658 9.57097 37.8882 9.03202C38.1972 8.49307 38.9025 8.29799 39.4634 8.61541Z" fill="#535D79"/>
<path d="M37.413 13.5946C37.2014 13.955 36.7379 14.0773 36.3751 13.869C36.009 13.664 35.8814 13.2077 36.093 12.8473C36.3046 12.4869 36.7681 12.3646 37.1342 12.5696C37.4969 12.7779 37.6246 13.2342 37.413 13.5946Z" fill="#535D79"/>
<path d="M35.5583 16.2906C35.4172 16.5419 35.0948 16.6245 34.8429 16.4857C34.5876 16.3468 34.5037 16.0294 34.6447 15.7814C34.7858 15.5301 35.1082 15.4474 35.3635 15.5863C35.6154 15.7252 35.6994 16.0426 35.5583 16.2906Z" fill="#535D79"/>
<path d="M35.4439 2.65662C35.6521 1.85315 36.4951 1.38363 37.3113 1.59194C38.1275 1.80025 38.6178 2.63017 38.3928 3.43033C38.1812 4.2338 37.3382 4.71654 36.5254 4.49501C35.7092 4.2867 35.2188 3.46009 35.4439 2.65662Z" fill="#535D79"/>
<path d="M34.4884 7.95379C34.6429 7.39831 35.2206 7.06766 35.7815 7.21976C36.3424 7.37185 36.6816 7.93726 36.5271 8.49274C36.3726 9.04492 35.7949 9.37556 35.234 9.22347C34.6731 9.07137 34.3473 8.50597 34.4884 7.95379Z" fill="#535D79"/>
<path d="M33.7165 12.1013C33.8139 11.7277 34.2103 11.5061 34.5864 11.6053C34.966 11.7012 35.191 12.0881 35.0936 12.4617C34.9962 12.8353 34.6032 13.0569 34.2237 12.9577C33.8442 12.8486 33.6191 12.4617 33.7165 12.1013Z" fill="#535D79"/>
<path d="M33.6888 14.9501C33.9407 15.0195 34.0952 15.2807 34.0247 15.5287C33.9541 15.78 33.6888 15.9321 33.4335 15.8626C33.1816 15.7932 33.0271 15.5287 33.0977 15.2807C33.1548 15.0327 33.4201 14.8806 33.6888 14.9501Z" fill="#535D79"/>
<path d="M31.8897 3.80772C32.6818 3.80772 33.3239 3.17561 33.3239 2.39586C33.3239 1.61612 32.6818 0.984009 31.8897 0.984009C31.0977 0.984009 30.4556 1.61612 30.4556 2.39586C30.4556 3.17561 31.0977 3.80772 31.8897 3.80772Z" fill="#535D79"/>
<path d="M31.8899 8.69801C32.4167 8.69801 32.8438 8.27759 32.8438 7.75898C32.8438 7.24037 32.4167 6.81995 31.8899 6.81995C31.3631 6.81995 30.936 7.24037 30.936 7.75898C30.936 8.27759 31.3631 8.69801 31.8899 8.69801Z" fill="#535D79"/>
<path d="M31.8924 12.612C32.2652 12.612 32.5675 12.3145 32.5675 11.9474C32.5675 11.5804 32.2652 11.2828 31.8924 11.2828C31.5195 11.2828 31.2173 11.5804 31.2173 11.9474C31.2173 12.3145 31.5195 12.612 31.8924 12.612Z" fill="#535D79"/>
<path d="M31.8883 15.6288C32.1294 15.6288 32.3249 15.4364 32.3249 15.199C32.3249 14.9616 32.1294 14.7692 31.8883 14.7692C31.6471 14.7692 31.4517 14.9616 31.4517 15.199C31.4517 15.4364 31.6471 15.6288 31.8883 15.6288Z" fill="#535D79"/>
<path d="M25.5708 3.40502C25.3726 2.70075 25.7958 1.97994 26.5112 1.78817C27.23 1.59308 27.9588 2.00639 28.157 2.71397C28.3518 3.41825 27.932 4.13575 27.2132 4.33083C26.5112 4.50937 25.769 4.09607 25.5708 3.40502Z" fill="#535D79"/>
<path d="M28.0546 7.41588C28.5181 7.29024 28.9816 7.55144 29.1092 8.00774C29.2369 8.46403 28.9682 8.92032 28.5047 9.04596C28.0412 9.17161 27.5777 8.90709 27.4501 8.4508C27.3258 8.00774 27.6046 7.53822 28.0546 7.41588Z" fill="#535D79"/>
<path d="M29.2212 11.7002C29.5436 11.6043 29.8929 11.7961 29.9769 12.1301C30.0776 12.4475 29.8795 12.7914 29.5436 12.874C29.2212 12.9732 28.8685 12.7781 28.7845 12.4475C28.7006 12.1135 28.8819 11.7829 29.2212 11.7002Z" fill="#535D79"/>
<path d="M30.1291 15.0609C30.3273 15.0047 30.5389 15.1171 30.5926 15.3254C30.6497 15.5172 30.5389 15.7255 30.3273 15.7817C30.1291 15.8346 29.9209 15.7255 29.8638 15.5172C29.8067 15.3089 29.9343 15.1171 30.1291 15.0609Z" fill="#535D79"/>
<path d="M21.1123 5.57228C20.7764 4.99365 20.9846 4.23317 21.5758 3.89921C22.1669 3.56857 22.9394 3.77688 23.2752 4.3555C23.6145 4.93744 23.4029 5.69792 22.8117 6.02857C22.2206 6.36252 21.4649 6.16744 21.1123 5.57228Z" fill="#535D79"/>
<path d="M24.2649 9.98335C24.0533 9.62625 24.1809 9.16996 24.547 8.96165C24.9097 8.75335 25.3732 8.87899 25.5848 9.23939C25.7964 9.59649 25.6688 10.0528 25.3027 10.2611C24.94 10.4694 24.4597 10.3437 24.2649 9.98335Z" fill="#535D79"/>
<path d="M26.5361 13.5246C26.3816 13.2468 26.4656 12.9029 26.7443 12.7509C27.0265 12.5988 27.3791 12.6814 27.5336 12.9559C27.6881 13.2336 27.6008 13.5808 27.322 13.7329C27.0533 13.885 26.704 13.7858 26.5361 13.5246Z" fill="#535D79"/>
<path d="M28.8397 16.3463C28.6852 16.4289 28.487 16.3727 28.3896 16.2206C28.3056 16.0553 28.3594 15.8635 28.5139 15.7643C28.6852 15.6817 28.88 15.7379 28.9774 15.89C29.0781 16.0421 29.021 16.2504 28.8397 16.3463Z" fill="#535D79"/>
<path d="M17.3517 8.81044C16.9016 8.36737 16.9016 7.64987 17.3517 7.20681C17.8018 6.76375 18.5306 6.76375 18.9807 7.20681C19.4307 7.64987 19.4307 8.36737 18.9807 8.81044C18.544 9.2535 17.8152 9.2535 17.3517 8.81044Z" fill="#535D79"/>
<path d="M22.5077 12.2659C22.2558 12.5304 21.8326 12.5304 21.5672 12.2659C21.2985 12.0179 21.2985 11.6046 21.5672 11.3401C21.8191 11.0789 22.2423 11.0789 22.5077 11.3401C22.7596 11.5881 22.7596 12.0047 22.5077 12.2659Z" fill="#535D79"/>
<path d="M25.4107 15.1296C25.1991 15.3379 24.8766 15.3379 24.665 15.1296C24.4534 14.9213 24.4534 14.6039 24.665 14.3956C24.8766 14.1906 25.1991 14.1906 25.4107 14.3956C25.6088 14.6039 25.6088 14.9213 25.4107 15.1296Z" fill="#535D79"/>
<path d="M27.591 17.259C27.4802 17.3548 27.3123 17.3548 27.1981 17.259C27.0872 17.1631 27.0738 16.9812 27.1846 16.8721C27.282 16.7597 27.4668 16.7465 27.5776 16.8589C27.6918 16.968 27.6918 17.1498 27.591 17.259Z" fill="#535D79"/>
<path d="M14.1591 11.4217C14.4412 10.939 15.0861 10.7604 15.5932 11.0481C16.0836 11.3258 16.2683 11.9607 15.9728 12.46C15.6906 12.9427 15.0458 13.1245 14.5386 12.8336C14.0348 12.5426 13.8635 11.9078 14.1591 11.4217Z" fill="#535D79"/>
<path d="M20.3134 14.933C20.1421 15.2107 19.8063 15.2934 19.5242 15.1413C19.2588 14.976 19.1581 14.6453 19.3159 14.3676C19.4838 14.1064 19.8197 14.0072 20.1018 14.1593C20.3672 14.3114 20.4679 14.6585 20.3134 14.933Z" fill="#535D79"/>
<path d="M23.926 16.9814C23.7984 17.2029 23.5028 17.2724 23.2778 17.15C23.0393 17.0244 22.9688 16.7334 23.0964 16.5119C23.2207 16.2771 23.5162 16.2077 23.7413 16.3333C23.9663 16.4722 24.0503 16.7599 23.926 16.9814Z" fill="#535D79"/>
<path d="M51.3338 23.7587C52.6063 23.7587 53.6379 22.7432 53.6379 21.4905C53.6379 20.2378 52.6063 19.2223 51.3338 19.2223C50.0613 19.2223 49.0298 20.2378 49.0298 21.4905C49.0298 22.7432 50.0613 23.7587 51.3338 23.7587Z" fill="#535D79"/>
<path d="M45.8831 23.1083C46.7902 23.1083 47.5255 22.3845 47.5255 21.4915C47.5255 20.5985 46.7902 19.8746 45.8831 19.8746C44.976 19.8746 44.2407 20.5985 44.2407 21.4915C44.2407 22.3845 44.976 23.1083 45.8831 23.1083Z" fill="#535D79"/>
<path d="M41.6237 22.5978C42.2451 22.5978 42.7489 22.1019 42.7489 21.4901C42.7489 20.8784 42.2451 20.3824 41.6237 20.3824C41.0023 20.3824 40.4985 20.8784 40.4985 21.4901C40.4985 22.1019 41.0023 22.5978 41.6237 22.5978Z" fill="#535D79"/>
<path d="M38.3245 22.2108C38.7289 22.2108 39.0567 21.8881 39.0567 21.49C39.0567 21.0919 38.7289 20.7692 38.3245 20.7692C37.9201 20.7692 37.5923 21.0919 37.5923 21.49C37.5923 21.8881 37.9201 22.2108 38.3245 22.2108Z" fill="#535D79"/>
<path d="M52.6945 26.9486V26.9651C52.3855 28.0695 51.2334 28.7341 50.1116 28.4299C48.9865 28.1257 48.3114 26.9916 48.6204 25.8839C48.9294 24.7796 50.0814 24.115 51.2066 24.4192C52.3149 24.7234 52.99 25.8575 52.6945 26.9486Z" fill="#535D79"/>
<path d="M44.0105 24.6676C44.2221 23.9236 45.0081 23.4673 45.7671 23.6723C46.5262 23.8806 46.9897 24.6543 46.7781 25.4016C46.5699 26.1489 45.7806 26.6051 45.0215 26.3968C44.249 26.1885 43.8023 25.4148 44.0105 24.6676Z" fill="#535D79"/>
<path d="M40.2646 23.6887C40.4191 23.1332 40.9968 22.8025 41.5577 22.9546C42.122 23.1067 42.4578 23.6721 42.3033 24.2276C42.1488 24.7798 41.5711 25.1104 41.0102 24.9583C40.4493 24.8062 40.1269 24.2408 40.2646 23.6887Z" fill="#535D79"/>
<path d="M37.4521 22.9548C37.5495 22.5944 37.9156 22.3861 38.2649 22.4853C38.631 22.5812 38.8426 22.9416 38.7452 23.2854C38.6445 23.6458 38.2817 23.8541 37.9291 23.7549C37.563 23.6591 37.3547 23.2854 37.4521 22.9548Z" fill="#535D79"/>
<path d="M50.3767 31.9677C49.8426 32.867 48.6772 33.1845 47.7636 32.662C46.8501 32.1363 46.5276 30.989 47.0616 30.0896C47.5957 29.1903 48.7611 28.8728 49.6747 29.3986C50.5883 29.9243 50.8973 31.0716 50.3767 31.9677Z" fill="#535D79"/>
<path d="M43.3397 29.4943C42.6948 29.1339 42.4832 28.3337 42.8493 27.6956C43.2154 27.0608 44.0282 26.8525 44.6764 27.2129C45.3213 27.5733 45.5329 28.3734 45.1668 29.0116C44.7873 29.6332 43.9745 29.8547 43.3397 29.4943Z" fill="#535D79"/>
<path d="M39.8284 27.0759C39.3649 26.8147 39.2104 26.246 39.4757 25.7897C39.7444 25.3334 40.3187 25.1813 40.7822 25.4458C41.2457 25.7071 41.4002 26.2758 41.1349 26.7321C40.8662 27.1718 40.2919 27.3239 39.8284 27.0759Z" fill="#535D79"/>
<path d="M37.1585 25.1548H37.145C36.8495 24.9729 36.7353 24.6026 36.92 24.3116C37.1014 24.0207 37.4809 23.9248 37.7765 24.0901C38.072 24.2687 38.1694 24.6423 38.0015 24.9333C37.8336 25.2242 37.454 25.3201 37.1585 25.1548Z" fill="#535D79"/>
<path d="M46.8403 33.7806C47.5154 34.4452 47.5154 35.5099 46.8403 36.1745C46.1652 36.8358 45.0837 36.8358 44.4086 36.1745C43.7369 35.5099 43.7369 34.4452 44.4086 33.7806C45.0837 33.1325 46.1786 33.1325 46.8403 33.7806Z" fill="#535D79"/>
<path d="M40.9001 32.0544C40.4064 31.5816 40.4064 30.8078 40.9001 30.3251C41.377 29.8391 42.1629 29.8391 42.6567 30.3251C43.147 30.7946 43.147 31.5683 42.6567 32.0544C42.1629 32.5371 41.377 32.5371 40.9001 32.0544Z" fill="#535D79"/>
<path d="M38.1567 28.8168C37.8208 28.4994 37.8208 27.9605 38.1567 27.6265C38.4926 27.2959 39.04 27.2959 39.3792 27.6265C39.7151 27.9605 39.7151 28.4994 39.3792 28.8301C39.04 29.164 38.4926 29.164 38.1567 28.8168Z" fill="#535D79"/>
<path d="M36.0345 25.5272C36.2595 25.3057 36.6256 25.3057 36.8507 25.5272C37.0757 25.7488 37.0757 26.1059 36.8507 26.3274C36.6256 26.5489 36.2595 26.5489 36.0345 26.3274C35.8095 26.1059 35.8095 25.7488 36.0345 25.5272Z" fill="#535D79"/>
<path d="M43.0179 37.2102C43.468 37.9707 43.2026 38.9527 42.4301 39.3958C41.6576 39.8388 40.6601 39.5743 40.21 38.8138C39.76 38.0533 40.0253 37.0746 40.7978 36.6316C41.5703 36.1885 42.5678 36.4497 43.0179 37.2102Z" fill="#535D79"/>
<path d="M39.4478 34.3614C38.8835 34.6788 38.195 34.4871 37.8726 33.9448C37.5501 33.3926 37.7483 32.7148 38.2958 32.3974C38.8567 32.08 39.5452 32.2717 39.8676 32.814C40.1901 33.3529 39.9953 34.044 39.4478 34.3614Z" fill="#535D79"/>
<path d="M36.093 30.1182C35.8814 29.7578 36.009 29.3015 36.3751 29.0965C36.7379 28.8882 37.2014 29.0139 37.413 29.371C37.6246 29.7314 37.4969 30.1877 37.1342 30.396C36.7681 30.601 36.3046 30.4786 36.093 30.1182Z" fill="#535D79"/>
<path d="M35.5583 26.6751C35.6994 26.9231 35.6154 27.2405 35.3635 27.3794C35.1082 27.5182 34.7858 27.4356 34.6447 27.1876C34.5037 26.9363 34.5876 26.6189 34.8429 26.48C35.0948 26.3411 35.4172 26.4271 35.5583 26.6751Z" fill="#535D79"/>
<path d="M38.3928 39.5342C38.6178 40.3344 38.1275 41.151 37.3113 41.3726C36.4951 41.5941 35.6689 41.1114 35.4439 40.3079C35.2188 39.5077 35.7092 38.691 36.5254 38.4695C37.3382 38.248 38.1812 38.7307 38.3928 39.5342Z" fill="#535D79"/>
<path d="M34.4884 34.9958C34.3473 34.4436 34.6731 33.8782 35.234 33.7261C35.7949 33.574 36.3726 33.9047 36.5271 34.4568C36.6816 35.009 36.3424 35.5777 35.7815 35.7298C35.2206 35.8819 34.6429 35.5645 34.4884 34.9958Z" fill="#535D79"/>
<path d="M34.5864 31.3601C34.2103 31.4593 33.8139 31.2378 33.7165 30.8642C33.6191 30.4905 33.8442 30.1037 34.2237 30.0078C34.6032 29.9086 34.9962 30.1301 35.0936 30.5038C35.2078 30.8906 34.9828 31.2775 34.5864 31.3601Z" fill="#535D79"/>
<path d="M33.6771 28.0136C33.4084 28.0831 33.1565 27.931 33.086 27.683C33.0154 27.435 33.1699 27.1705 33.4218 27.1011C33.6771 27.0349 33.9424 27.187 34.013 27.435C34.0835 27.683 33.929 27.9475 33.6771 28.0136Z" fill="#535D79"/>
<path d="M31.8897 41.9836C32.6818 41.9836 33.3239 41.3515 33.3239 40.5718C33.3239 39.792 32.6818 39.1599 31.8897 39.1599C31.0977 39.1599 30.4556 39.792 30.4556 40.5718C30.4556 41.3515 31.0977 41.9836 31.8897 41.9836Z" fill="#535D79"/>
<path d="M31.8899 36.1452C32.4167 36.1452 32.8438 35.7247 32.8438 35.2061C32.8438 34.6875 32.4167 34.2671 31.8899 34.2671C31.3631 34.2671 30.936 34.6875 30.936 35.2061C30.936 35.7247 31.3631 36.1452 31.8899 36.1452Z" fill="#535D79"/>
<path d="M31.8924 31.6687C32.2652 31.6687 32.5675 31.3711 32.5675 31.0041C32.5675 30.637 32.2652 30.3395 31.8924 30.3395C31.5195 30.3395 31.2173 30.637 31.2173 31.0041C31.2173 31.3711 31.5195 31.6687 31.8924 31.6687Z" fill="#535D79"/>
<path d="M31.8883 28.1952C32.1294 28.1952 32.3249 28.0028 32.3249 27.7654C32.3249 27.528 32.1294 27.3356 31.8883 27.3356C31.6471 27.3356 31.4517 27.528 31.4517 27.7654C31.4517 28.0028 31.6471 28.1952 31.8883 28.1952Z" fill="#535D79"/>
<path d="M28.1561 40.2524C27.9579 40.9434 27.2291 41.3732 26.5103 41.1815C25.8083 40.9864 25.3717 40.2689 25.5699 39.5613C25.768 38.8703 26.4969 38.4437 27.2123 38.6355C27.931 38.8306 28.3509 39.5481 28.1561 40.2524Z" fill="#535D79"/>
<path d="M29.1092 34.9451C28.9816 35.3849 28.5181 35.6626 28.0546 35.537C27.6046 35.4146 27.3258 34.9584 27.4501 34.5021C27.5777 34.059 28.0412 33.7813 28.5047 33.9069C28.9682 34.0326 29.2369 34.5021 29.1092 34.9451Z" fill="#535D79"/>
<path d="M29.976 30.8379C29.892 31.1553 29.5562 31.3471 29.2203 31.2644C28.8945 31.1818 28.6997 30.8511 28.7837 30.5172C28.8676 30.1997 29.2035 30.008 29.5427 30.0906C29.8786 30.1865 30.0768 30.5172 29.976 30.8379Z" fill="#535D79"/>
<path d="M30.1504 27.9042C29.9523 27.8612 29.8414 27.643 29.8818 27.4479C29.9254 27.2528 30.1504 27.1437 30.3453 27.1867C30.5434 27.2264 30.6677 27.4347 30.6139 27.643C30.5568 27.848 30.3453 27.9604 30.1504 27.9042Z" fill="#535D79"/>
<path d="M23.2652 38.6071C22.9125 39.1857 22.1535 39.3808 21.5657 39.0501C20.9746 38.703 20.7798 37.9557 21.1156 37.3771C21.4683 36.7951 22.224 36.6001 22.8151 36.934C23.4062 37.2779 23.6178 38.0251 23.2652 38.6071Z" fill="#535D79"/>
<path d="M25.5848 33.7269C25.3732 34.084 24.9097 34.2096 24.547 34.0013C24.1809 33.793 24.0533 33.3367 24.2649 32.9796C24.4765 32.6192 24.94 32.4936 25.3027 32.7019C25.6688 32.9102 25.7964 33.3665 25.5848 33.7269Z" fill="#535D79"/>
<path d="M26.5516 29.4407C26.7061 29.1663 27.0554 29.0803 27.3375 29.2324C27.6197 29.3845 27.7036 29.7317 27.5491 30.0094C27.3946 30.2839 27.042 30.3665 26.7632 30.2144C26.4811 30.0623 26.3971 29.7185 26.5516 29.4407Z" fill="#535D79"/>
<path d="M28.9988 27.0617C28.9148 27.2271 28.7032 27.2833 28.5487 27.1874C28.3808 27.1014 28.3237 26.8964 28.4211 26.7443C28.505 26.579 28.7166 26.5228 28.8711 26.6187C29.0256 26.7146 29.0827 26.9229 28.9988 27.0617Z" fill="#535D79"/>
<path d="M18.9885 34.1547C19.4385 34.5978 19.4385 35.3152 18.9885 35.7583C18.5384 36.2014 17.8096 36.2014 17.3595 35.7583C16.9095 35.3152 16.9095 34.5978 17.3595 34.1547C17.8096 33.7116 18.5384 33.7116 18.9885 34.1547Z" fill="#535D79"/>
<path d="M22.5077 30.7C22.7764 30.948 22.7596 31.3613 22.5077 31.6258C22.2558 31.887 21.8326 31.887 21.5672 31.6258C21.2985 31.3778 21.2985 30.9612 21.5672 30.7C21.8191 30.4355 22.2558 30.4355 22.5077 30.7Z" fill="#535D79"/>
<path d="M25.4107 27.8356C25.6223 28.0439 25.6223 28.3613 25.4107 28.5696C25.1991 28.7746 24.8766 28.7746 24.665 28.5696C24.4534 28.3613 24.4534 28.0439 24.665 27.8356C24.8632 27.6272 25.1991 27.6272 25.4107 27.8356Z" fill="#535D79"/>
<path d="M27.591 26.1061C27.4802 26.2053 27.3123 26.2053 27.1981 26.1061C27.0872 26.0102 27.0738 25.8317 27.1846 25.7192C27.282 25.6101 27.4668 25.5969 27.5776 25.706C27.6918 25.8184 27.6918 25.997 27.591 26.1061Z" fill="#535D79"/>
<path d="M16.0014 30.4776C16.297 30.9736 16.129 31.5985 15.6219 31.8862C15.1181 32.1771 14.4866 32.0118 14.1911 31.5125C13.8955 31.0166 14.0634 30.3949 14.5706 30.104C15.0744 29.813 15.7226 29.9783 16.0014 30.4776Z" fill="#535D79"/>
<path d="M20.3134 28.0304C20.4679 28.3048 20.3672 28.652 20.1018 28.8041C19.8197 28.9562 19.4704 28.8603 19.3159 28.5958C19.1581 28.318 19.2588 27.9742 19.5242 27.8221C19.8063 27.67 20.1556 27.7659 20.3134 28.0304Z" fill="#535D79"/>
<path d="M23.9118 25.9849C24.0528 26.2064 23.9688 26.4941 23.7438 26.6197C23.5188 26.7586 23.2232 26.6759 23.0989 26.4544C22.9579 26.2329 23.0419 25.9419 23.2669 25.8196C23.4919 25.6807 23.7875 25.7633 23.9118 25.9849Z" fill="#535D79"/>
<path fill-rule="evenodd" clip-rule="evenodd" d="M12.4335 18.1965H14.1196V24.5846H12.4335V18.1965ZM14.1465 16.5234C14.0054 17.0359 13.4714 17.3401 12.9541 17.2013C12.4335 17.0624 12.1245 16.54 12.2656 16.0275C12.4033 15.515 12.9373 15.2108 13.4579 15.3497C13.9785 15.4753 14.2875 16.0142 14.1465 16.5234ZM19.3323 24.7234C18.9225 24.7234 18.5161 24.654 18.1366 24.4887C17.8007 24.3366 17.5051 24.1018 17.2801 23.8109V27.7786H15.6377V18.1965H17.2667V19.0826C17.4783 18.7652 17.7705 18.5172 18.1231 18.3354C18.4892 18.1568 18.8956 18.0609 19.3188 18.0609C19.7252 18.0609 20.1182 18.1436 20.4977 18.2957C20.8773 18.4478 21.2131 18.6826 21.4953 18.957C21.7908 19.2612 22.0293 19.6216 22.1838 20.0084C22.3652 20.4515 22.4491 20.9078 22.4357 21.3773C22.4491 21.8468 22.3517 22.3196 22.1704 22.7594C21.9991 23.1463 21.7606 23.5067 21.4684 23.8109C20.9176 24.3928 20.1316 24.7234 19.3323 24.7234ZM18.993 23.176C19.2315 23.176 19.4733 23.133 19.695 23.0371C19.9066 22.9413 20.1048 22.8156 20.2727 22.6503C20.4406 22.485 20.5683 22.2899 20.6522 22.0816C20.8336 21.6253 20.8336 21.1293 20.6522 20.673C20.5683 20.4647 20.4272 20.273 20.2727 20.1043C20.1048 19.939 19.9066 19.8167 19.695 19.7175C19.4733 19.6216 19.2315 19.5819 18.993 19.5819C18.5161 19.5819 18.0526 19.7737 17.6999 20.1043C17.532 20.273 17.4077 20.4647 17.3238 20.673C17.139 21.1293 17.139 21.6253 17.3238 22.0684C17.4077 22.2767 17.532 22.4717 17.6999 22.6371C18.0526 22.9942 18.5161 23.1892 18.993 23.176ZM23.6448 18.1965H25.2738V19.1785C25.4148 18.8346 25.6533 18.5437 25.9757 18.3486C26.315 18.1701 26.6777 18.0742 27.074 18.0874C27.2823 18.0874 27.4804 18.1138 27.6752 18.1568C27.8465 18.1965 28.0145 18.2527 28.169 18.3354L27.5644 19.939C27.4502 19.8696 27.3259 19.8167 27.1983 19.7737C27.0304 19.734 26.8624 19.7042 26.6945 19.7042C26.315 19.691 25.9489 19.8167 25.6667 20.0514C25.4148 20.2862 25.2872 20.673 25.2872 21.1988V24.5713H23.6448V18.1965ZM31.8366 24.7234C31.3731 24.7234 30.9096 24.6408 30.473 24.4622C30.0666 24.2936 29.7005 24.0456 29.3781 23.7414C28.7433 23.1198 28.394 22.2767 28.394 21.3905C28.394 20.9475 28.478 20.5077 28.6459 20.0911C28.8138 19.691 29.0523 19.3306 29.3613 19.0264C30.7249 17.727 32.8879 17.727 34.2515 19.0264C34.883 19.648 35.2491 20.4912 35.2491 21.3773C35.2491 21.8204 35.1651 22.2634 34.9837 22.6635C34.8124 23.0636 34.5605 23.424 34.265 23.7282C33.956 24.0324 33.5899 24.2804 33.17 24.4457C32.7636 24.6276 32.3001 24.7234 31.8366 24.7234ZM31.8501 23.176C32.0885 23.176 32.327 23.133 32.552 23.0371C32.7636 22.9413 32.945 22.8156 33.1129 22.6635C33.2809 22.4982 33.4085 22.3031 33.4925 22.0948C33.6772 21.6385 33.6772 21.1426 33.4925 20.6995C33.4085 20.4912 33.2809 20.2994 33.1129 20.1341C32.945 19.9655 32.7636 19.8431 32.552 19.7605C32.102 19.5654 31.5948 19.5654 31.1615 19.7605C30.9499 19.8563 30.7686 19.982 30.5973 20.1341C30.4294 20.2994 30.3051 20.4912 30.2211 20.6995C30.0364 21.1558 30.0364 21.6551 30.2211 22.0948C30.3051 22.3031 30.4294 22.4982 30.5973 22.6635C30.7686 22.8288 30.9499 22.9545 31.1615 23.0371C31.3731 23.1198 31.6116 23.176 31.8501 23.176ZM0.70166 18.1965H2.38772L3.69425 22.2767L5.23924 18.1965H6.70027L8.21839 22.2767L9.58202 18.1965H11.2681L9.06142 24.5846H7.50299L5.95464 20.4217L4.39621 24.5846H2.80755L0.70166 18.1965Z" fill="#535D79"/>
</g>
<defs>
<clipPath id="clip0_817_1310">
<rect width="53" height="41" fill="white" transform="translate(0.666504 0.984009)"/>
</clipPath>
</defs>
</svg>
