<svg width="96" height="42" viewBox="0 0 96 42" fill="none" xmlns="http://www.w3.org/2000/svg">
<g clip-path="url(#clip0_817_1394)">
<path d="M56.3291 13.9604L61.7975 11.926L56.3291 9.83259V6.98401L65.6953 10.7632V13.0888L56.3291 16.8674V13.9604Z" fill="#535D79"/>
<path fill-rule="evenodd" clip-rule="evenodd" d="M4.60814 31.9837C2.62996 31.9837 1.00098 30.9952 1.00098 28.7859V28.6695C1.00098 25.9953 3.32835 25.0652 6.17864 25.0652H7.51692V24.5417C7.51692 23.4374 7.05133 22.7981 5.88794 22.7981C4.84094 22.7981 4.31686 23.3789 4.25895 24.1931H1.35017C1.58296 21.7511 3.50265 20.5888 6.06224 20.5888C8.68032 20.5888 10.6 21.6932 10.6 24.4259V31.7509H7.63332V30.4723C7.05133 31.2859 6.06225 31.9837 4.60814 31.9837ZM7.51692 28.1466V27.1002H6.29504C4.78245 27.1002 4.02616 27.5073 4.02616 28.4952V28.6116C4.02616 29.3673 4.49174 29.8908 5.53874 29.8908C6.58575 29.8324 7.51692 29.2509 7.51692 28.1466ZM17.5236 31.9837C14.4985 31.9837 12.2875 30.1231 12.2875 26.4024V26.2281C12.2875 22.5074 14.6143 20.5303 17.5236 20.5303C20.0253 20.5303 22.0614 21.8096 22.2942 24.6581H19.3848C19.2105 23.6117 18.6285 22.9139 17.5815 22.9139C16.3018 22.9139 15.3706 23.9603 15.3706 26.1117V26.4603C15.3706 28.6695 16.1854 29.658 17.5815 29.658C18.6285 29.658 19.3848 28.9023 19.5597 27.6816H22.3521C22.1778 30.2395 20.4903 31.9837 17.5236 31.9837ZM28.926 31.9837C25.9008 31.9837 23.6904 30.1231 23.6904 26.4024V26.2281C23.6904 22.5074 26.0172 20.5303 28.926 20.5303C31.4276 20.5303 33.4643 21.8096 33.6965 24.6581H30.7877C30.6134 23.6117 30.0315 22.9139 28.9845 22.9139C27.7047 22.9139 26.7735 23.9603 26.7735 26.1117V26.4603C26.7735 28.6695 27.5883 29.658 28.9845 29.658C30.0315 29.658 30.7877 28.9023 30.9626 27.6816H33.755C33.5807 30.2395 31.8932 31.9837 28.926 31.9837ZM40.3874 31.9837C37.2458 31.9837 35.0933 30.1231 35.0933 26.4603V26.2281C35.0933 22.5653 37.3622 20.5303 40.3289 20.5303C43.0633 20.5303 45.3322 22.0418 45.3322 25.7046V27.0417H38.1764C38.2928 29.0187 39.1655 29.7744 40.4453 29.7744C41.6087 29.7744 42.2491 29.1351 42.4814 28.3788H45.3322C44.983 30.4138 43.2377 31.9837 40.3874 31.9837ZM38.2349 25.0073H42.3071C42.2491 23.3789 41.4928 22.6817 40.271 22.6817C39.3398 22.7396 38.4671 23.2631 38.2349 25.0073ZM50.2777 20.821V22.4489C50.8012 21.4024 51.9061 20.5888 53.5936 20.5888C55.5717 20.5888 56.9094 21.8096 56.9094 24.4259V31.7509H53.8264V24.8909C53.8264 23.6117 53.3029 23.0303 52.1974 23.0303C51.1498 23.0303 50.2777 23.6696 50.2777 25.0652V31.7509H47.194V20.821H50.2777ZM62.5527 17.5074V20.821H64.6473V23.0888H62.5527V28.263C62.5527 29.0766 62.9019 29.4837 63.6582 29.4837C64.1238 29.4837 64.4145 29.4258 64.7052 29.3094V31.693C64.3566 31.8094 63.7167 31.9258 62.9604 31.9258C60.5751 31.9258 59.4696 30.8209 59.4696 28.6116V23.0888H58.1898V20.821H59.4696V18.7861L62.5527 17.5074ZM76.1666 31.7509H73.1414V30.1231C72.6173 31.1695 71.5703 31.9837 69.9413 31.9837C67.9632 31.9837 66.5091 30.763 66.5091 28.2045V20.821H69.5921V27.798C69.5921 29.0766 70.1162 29.658 71.1632 29.658C72.2102 29.658 73.0829 28.9602 73.0829 27.6231V20.821H76.1666V31.7509ZM78.4355 20.821H81.5186V22.856C82.1584 21.4024 83.206 20.7046 84.835 20.7046V23.7281C82.7404 23.7281 81.5186 24.3674 81.5186 26.1696V31.8094H78.4355V20.821ZM91.0597 31.9837C87.9181 31.9837 85.7656 30.1231 85.7656 26.4603V26.2281C85.7656 22.5653 88.0345 20.5303 91.0018 20.5303C93.7362 20.5303 96.0051 22.0418 96.0051 25.7046V27.0417H88.9072C89.0236 29.0187 89.8963 29.7744 91.1761 29.7744C92.34 29.7744 92.9799 29.1351 93.2127 28.3788H96.063C95.598 30.4138 93.9105 31.9837 91.0597 31.9837ZM88.8493 25.0073H92.9799C92.9215 23.3789 92.1652 22.6817 90.9433 22.6817C90.0127 22.7396 89.14 23.2631 88.8493 25.0073Z" fill="#535D79"/>
</g>
<defs>
<clipPath id="clip0_817_1394">
<rect width="95" height="41" fill="white" transform="translate(0.833008 0.984009)"/>
</clipPath>
</defs>
</svg>
