<svg width="80" height="42" viewBox="0 0 80 42" fill="none" xmlns="http://www.w3.org/2000/svg">
<g clip-path="url(#clip0_817_1307)">
<path fill-rule="evenodd" clip-rule="evenodd" d="M74.6337 9.397C74.6337 8.05358 75.7608 6.99768 77.0475 6.99768C78.3991 6.99768 79.4614 8.11802 79.4614 9.397C79.4614 10.7404 78.3343 11.7963 77.0475 11.7963C75.7608 11.7963 74.6985 10.7404 74.6337 9.397ZM79.1672 9.41187C79.1672 8.28161 78.2495 7.36948 77.1124 7.36948C75.9753 7.36948 75.0576 8.28161 75.0576 9.41187C75.0576 10.5372 75.9753 11.4493 77.1124 11.4493C78.2495 11.4493 79.1672 10.5372 79.1672 9.41187ZM76.1698 10.6214H76.2396V7.99905H77.0575C77.5263 7.99905 78.055 8.11802 78.055 8.817C78.055 9.29289 77.8156 9.41187 77.641 9.46144L78.1049 10.5669H77.5762L77.1672 9.58042H76.6336V10.6363H76.1698V10.6214ZM76.6336 9.23836H77.1672C77.4066 9.23836 77.5762 9.11939 77.5762 8.88144C77.5762 8.64349 77.4565 8.52452 77.1672 8.52452H76.6336V9.23836ZM0.53125 7.657H3.35909V30.9363H0.53125V7.657ZM42.8691 27.5555C44.6296 29.1368 46.1557 29.9498 48.2105 29.9498C50.2653 29.9498 52.0807 28.9633 52.0807 27.0399C52.0807 25.409 50.6743 24.472 48.0908 23.4161C45.9164 22.4792 44.3403 21.8348 43.4476 20.5062C43.5673 21.0862 43.6222 21.6761 43.6222 22.3107C43.6222 27.5009 39.8018 31.7047 35.1087 31.7047C30.4156 31.7047 26.6003 27.5009 26.6003 22.3107C26.6003 19.1628 28.0017 16.4214 30.1263 14.6666H24.3709V31.0057H21.8523C21.8523 30.9512 21.8523 14.6567 21.8523 14.6567H19.6229V12.9712H21.9171C22.2114 9.53084 24.331 7.60742 27.3134 7.60742C29.2485 7.60742 30.3109 7.77597 30.8944 8.06845C30.8944 8.237 30.8944 10.6908 30.8944 10.6908H30.7747C29.8321 9.81836 28.9593 9.22845 26.8396 9.22845C25.139 9.22845 24.0118 10.5719 24.4258 12.9563H33.9965C34.4055 12.9018 34.8194 12.8373 35.2284 12.8373C38.6398 12.8373 41.5674 15.0483 42.9189 18.2655C42.9189 18.092 42.9189 17.9086 42.9189 17.6855C42.9189 14.3642 46.2056 12.9018 49.5472 12.9018C49.6669 12.9018 49.7866 12.9018 49.9062 12.9018C51.0883 12.9018 52.784 13.2587 53.8463 13.5512L54.7839 15.8266L55.8462 18.449L58.6691 25.4437L59.0282 26.5541L59.3872 25.4437L63.033 16.5156C63.6814 14.0618 66.3746 13.0108 69.2523 13.0108C70.7235 13.0108 71.7709 13.1794 73.0676 13.6553V16.357C71.4766 15.1821 70.3645 14.5476 68.5491 14.5476C66.9581 14.5476 65.0878 15.2466 65.0878 17.5814C65.033 19.3314 66.0803 19.6238 69.1974 21.1358C71.716 22.2462 74.0751 23.4161 74.0751 26.212C74.0751 30.8719 69.4368 31.6898 67.2075 31.6898C65.2075 31.6898 63.3372 31.2288 62.3298 30.3464V27.2531L62.5044 27.372C64.3198 29.0575 65.9606 29.9399 68.0154 29.9399C70.0752 29.9399 71.8906 28.9485 71.8906 27.025C71.8906 25.3941 70.4842 24.4572 67.9007 23.4062C65.4319 22.3503 63.841 21.6514 63.2026 19.9014C62.2101 22.2958 57.5718 33.5488 56.4547 35.9481H53.9909L54.5744 34.8377L55.1031 33.8512V33.8016C55.7515 32.5722 56.6292 30.6488 57.4521 28.7799L52.6393 17.2245C52.5845 17.17 52.5196 16.9866 52.3451 16.6445C51.986 15.8266 51.6419 15.0136 50.5845 14.6567C50.0509 14.4832 49.4025 14.3642 48.7691 14.3642C47.1732 14.3642 45.1882 15.0632 45.1882 17.398C45.1333 19.1479 46.3004 19.4404 49.4175 20.9524C51.9361 22.0579 54.2951 23.2327 54.2951 26.0237C54.2951 30.6885 49.6569 31.5064 47.4275 31.5064C45.662 31.5064 43.9663 31.0999 42.909 30.4505L42.8691 27.5555ZM52.6244 17.3485C52.6792 17.517 52.5047 17.1105 52.5047 17.1105L52.6244 17.3485ZM54.7689 34.5254C54.6842 34.6741 54.6193 34.798 54.5595 34.912L54.7689 34.5254ZM55.0931 33.9206L54.7689 34.5254C54.8587 34.3568 54.9684 34.1635 55.0931 33.9206ZM54.7689 15.9604C54.759 15.9373 54.7473 15.9108 54.734 15.8811L54.7689 15.9604ZM54.8537 16.1637L55.8013 18.5085L54.8587 16.1785C54.8554 16.1719 54.8537 16.167 54.8537 16.1637ZM54.7689 15.9604C54.7939 16.0298 54.8088 16.0794 54.8537 16.1637L54.7689 15.9604ZM29.2535 22.4842C29.3084 26.7375 31.9567 30.1283 35.1785 30.0738C38.4153 30.0192 40.934 26.5144 40.8791 22.3107C40.8292 18.0573 38.1759 14.6715 34.9541 14.7261C31.7173 14.7756 29.1887 18.216 29.2535 22.4842ZM8.63573 13.1447L8.69059 15.1871V15.3061C8.74545 15.2515 8.74545 15.1326 8.81029 15.0681C9.86761 13.9577 11.1544 12.8522 14.2715 12.8522C17.2689 12.8522 19.1491 15.3556 19.2588 16.937V30.9413H16.7402V18.1119C16.7402 16.119 14.9747 14.7261 12.865 14.7261C11.1045 14.7261 8.81029 16.3074 8.75543 17.9384V30.9413H6.17197V13.1447H8.63573Z" fill="#535D79"/>
</g>
<defs>
<clipPath id="clip0_817_1307">
<rect width="79" height="29" fill="white" transform="translate(0.5 6.98401)"/>
</clipPath>
</defs>
</svg>
