<svg width="121" height="83" viewBox="0 0 121 83" fill="none" xmlns="http://www.w3.org/2000/svg">
<path d="M52.8944 32.4456C52.8944 41.087 51.5422 48.5097 48.838 54.7138C46.1338 61.1395 42.6408 66.3465 38.3592 70.3348C34.0775 74.5447 29.2324 77.536 23.8239 79.3086C18.1901 81.3027 12.669 82.2998 7.26057 82.2998L7.26057 70.6671C13.1197 70.6671 18.6408 68.673 23.8239 64.6846C28.7817 60.9179 31.7113 55.7109 32.6127 49.0637C31.9366 49.2852 31.1479 49.5068 30.2465 49.7284C29.5704 49.95 28.7817 50.1715 27.8803 50.3931C26.7535 50.6147 25.5141 50.7255 24.162 50.7255C17.4014 50.7255 11.7676 48.1774 7.26056 43.0811C2.75352 38.2065 0.499996 32.4456 0.499995 25.7983C0.499994 19.1511 2.86619 13.2794 7.59859 8.18318C12.1056 3.30855 18.1901 0.87124 25.8521 0.871239C34.4155 0.871239 41.0634 3.97327 45.7958 10.1774C50.5282 16.603 52.8944 24.0257 52.8944 32.4456ZM120.5 32.4456C120.5 41.087 119.148 48.5097 116.444 54.7138C113.739 61.1395 110.246 66.3464 105.965 70.3348C101.683 74.5447 96.838 77.5359 91.4296 79.3085C85.7958 81.3027 80.2746 82.2998 74.8662 82.2998L74.8662 70.6671C80.7254 70.6671 86.2465 68.673 91.4296 64.6846C96.3873 60.9179 99.3169 55.7109 100.218 49.0636C99.5423 49.2852 98.7535 49.5068 97.8521 49.7284C97.1761 49.9499 96.3873 50.1715 95.4859 50.3931C94.3592 50.6147 93.1197 50.7254 91.7676 50.7254C85.007 50.7254 79.3732 48.1773 74.8662 43.0811C70.3591 38.2065 68.1056 32.4456 68.1056 25.7983C68.1056 19.1511 70.4718 13.2794 75.2042 8.18318C79.7113 3.30854 85.7958 0.871234 93.4577 0.871233C102.021 0.871233 108.669 3.97326 113.401 10.1773C118.134 16.603 120.5 24.0257 120.5 32.4456Z" fill="#F9BE59"/>
</svg>
